<svg width="1521" height="457" viewBox="0 0 1521 457" fill="none" xmlns="http://www.w3.org/2000/svg">
<path d="M811.132 449.768C809.69 453.014 808.248 454.997 806.805 455.718C805.363 456.079 803.199 456.259 800.315 456.259H783.006C780.121 456.259 777.958 455.898 776.515 455.177C775.073 454.456 773.811 452.653 772.729 449.768L619.116 80.8798C617.673 77.9951 617.673 75.2906 619.116 72.7664C620.558 70.2423 623.263 68.9802 627.229 68.9802H654.815C657.339 68.9802 659.322 69.5211 660.764 70.6028C662.567 71.6846 664.19 73.4876 665.632 76.0118C667.075 78.5359 668.517 82.1419 669.96 86.8296C671.763 91.1568 674.106 96.5657 676.991 103.056L791.66 386.484L906.87 103.056C909.394 96.5657 911.558 91.1568 913.361 86.8296C915.164 82.1419 916.606 78.5359 917.688 76.0118C919.131 73.4876 920.573 71.6846 922.015 70.6028C923.818 69.5211 926.162 68.9802 929.047 68.9802H956.632C962.762 68.9802 965.828 71.324 965.828 76.0118C965.828 77.0935 965.467 78.7162 964.746 80.8798L811.132 449.768Z" fill="#6C8DB5"/>
<path d="M488.725 68.9802C494.855 68.9802 497.92 71.8649 497.92 77.6344V448.146C497.92 453.554 494.855 456.259 488.725 456.259H460.598C455.19 456.259 452.485 453.554 452.485 448.146V77.0936C452.485 74.5694 453.206 72.5861 454.649 71.1438C456.452 69.7014 458.435 68.9802 460.598 68.9802H488.725Z" fill="#6C8DB5"/>
<path d="M322.094 68.6029C326.06 68.6029 328.764 69.5043 330.207 71.3073C331.649 72.7497 332.37 74.733 332.37 77.2571L329.666 448.309C329.666 453.718 326.421 456.422 319.93 456.422H285.313L45.1567 131.887V333.099L139.813 333.64C145.222 333.64 147.926 336.525 147.926 342.294V369.88C147.926 372.404 147.205 374.567 145.763 376.37C144.32 378.173 142.157 379.075 139.272 379.075L8.37609 378.534C2.96717 378.534 0.262708 376.19 0.262708 371.502V75.6344C0.262708 69.8649 3.32776 66.9802 9.45787 66.9802H46.7794C50.3854 66.9802 53.2701 68.4226 55.4337 71.3073L285.313 381.238L287.476 76.7162C287.476 74.5527 288.198 72.7497 289.64 71.3073C291.443 69.5043 293.426 68.6029 295.59 68.6029H322.094Z" fill="#6C8DB5"/>
<path d="M186.87 410.987C192.279 410.987 194.984 413.872 194.984 419.642V447.227C194.984 449.751 194.082 451.915 192.279 453.718C190.837 455.521 188.854 456.422 186.33 456.422H8.37607C2.96715 456.422 0.262695 453.718 0.262695 448.309V420.724C0.262695 417.839 0.983885 415.495 2.42626 413.692C3.86864 411.889 6.03221 410.987 8.91697 410.987H186.87Z" fill="#6C8DB5"/>
<path fill-rule="evenodd" clip-rule="evenodd" d="M1456.93 7.10849C1425.64 7.10849 1400.27 32.475 1400.27 63.7662C1400.27 95.0574 1425.64 120.424 1456.93 120.424C1488.22 120.424 1513.59 95.0574 1513.59 63.7662C1513.59 32.475 1488.22 7.10849 1456.93 7.10849ZM1393.48 63.7662C1393.48 28.7201 1421.89 0.30957 1456.93 0.30957C1491.98 0.30957 1520.39 28.7201 1520.39 63.7662C1520.39 98.8123 1491.98 127.223 1456.93 127.223C1421.89 127.223 1393.48 98.8123 1393.48 63.7662Z" fill="#6C8DB5"/>
<path d="M1462.8 61.2857C1464.27 61.177 1465.62 60.7968 1466.87 60.145C1468.18 59.4389 1469.32 58.5699 1470.3 57.5379C1471.27 56.4516 1472.03 55.2295 1472.58 53.8716C1473.17 52.5137 1473.47 51.1015 1473.47 49.635C1473.47 48.1685 1473.17 46.7291 1472.58 45.3169C1471.98 43.9047 1471.16 42.6555 1470.13 41.5691C1469.15 40.4828 1467.96 39.6138 1466.55 38.962C1465.19 38.3102 1463.75 37.9843 1462.23 37.9843H1442.59C1441.73 37.9843 1441.29 37.5226 1441.29 36.5993V32.5256C1441.29 31.7109 1441.73 31.3035 1442.59 31.3035H1462.31C1464.75 31.3035 1467.06 31.7924 1469.24 32.77C1471.41 33.7477 1473.31 35.0784 1474.94 36.7622C1476.57 38.3917 1477.87 40.3199 1478.85 42.5468C1479.83 44.7738 1480.32 47.1093 1480.32 49.5535C1480.32 51.6175 1479.96 53.6272 1479.26 55.5825C1478.55 57.4836 1477.57 59.2217 1476.32 60.7968C1475.13 62.372 1473.69 63.757 1472.01 64.952C1470.32 66.1469 1468.48 67.016 1466.47 67.5591L1479.18 88.7422C1479.34 89.0681 1479.42 89.2853 1479.42 89.394C1479.42 89.5569 1479.18 89.6384 1478.69 89.6384H1472.58C1472.14 89.6384 1471.79 89.5297 1471.52 89.3125C1471.25 89.0409 1471 88.7422 1470.78 88.4163L1458.48 67.9665H1444.55V88.4163C1444.55 89.231 1444.14 89.6384 1443.33 89.6384H1439.09C1438.22 89.6384 1437.79 89.231 1437.79 88.4163V62.6707C1437.79 61.7474 1438.22 61.2857 1439.09 61.2857H1462.8Z" fill="#6C8DB5"/>
<path d="M1357.49 223.144C1357.49 312.704 1284.89 385.307 1195.33 385.307C1105.77 385.307 1033.17 312.704 1033.17 223.144C1033.17 133.583 1105.77 60.9802 1195.33 60.9802C1284.89 60.9802 1357.49 133.583 1357.49 223.144ZM1071.05 223.144C1071.05 291.782 1126.69 347.425 1195.33 347.425C1263.97 347.425 1319.61 291.782 1319.61 223.144C1319.61 154.505 1263.97 98.862 1195.33 98.862C1126.69 98.862 1071.05 154.505 1071.05 223.144Z" fill="#EE7054"/>
<path d="M1285.69 410.255C1291.1 410.255 1293.81 413.142 1293.81 418.916V446.522C1293.81 449.048 1292.91 451.214 1291.1 453.018C1289.66 454.822 1287.67 455.724 1285.15 455.724H1107.06C1101.65 455.724 1098.94 453.018 1098.94 447.605V419.999C1098.94 417.112 1099.66 414.766 1101.11 412.962C1102.55 411.157 1104.71 410.255 1107.6 410.255H1285.69Z" fill="#EE7054"/>
</svg>
