<svg width="130" height="130" viewBox="0 0 130 130" fill="none" xmlns="http://www.w3.org/2000/svg">
<path d="M65 129C100.346 129 129 100.346 129 65C129 29.6538 100.346 1 65 1C29.6538 1 1 29.6538 1 65C1 100.346 29.6538 129 65 129Z" fill="#F5F5F5" stroke="#2B2A29" stroke-width="0.755906" stroke-miterlimit="22.9256"/>
<path fill-rule="evenodd" clip-rule="evenodd" d="M36.2747 17.2325C38.503 15.8468 40.0565 14.9062 43.2485 14.5186H85.9833C88.9774 14.5383 91.4174 15.4146 93.4036 16.9919L120.886 44.6117C122.561 46.6546 121.798 51.6499 118.275 51.8946L72.6201 51.9633C71.8528 52.0324 71.0399 51.6426 70.1808 50.7952L55.4436 36.092C53.8323 33.8272 54.7191 29.036 58.6385 28.6721L72.6889 28.6377C75.0477 28.649 75.036 23.8852 72.6545 23.9313L45.1721 23.8626C43.3008 23.9364 41.9129 24.7959 40.7748 26.0612L24.1823 42.7224L42.0116 42.6877L42.0742 32.3128C42.6356 27.3979 50.6601 27.4348 51.3816 32.2992L51.3882 48.15C51.1922 50.1344 49.7425 51.8225 47.508 51.8946H11.6435C8.76017 51.5504 7.24392 47.578 9.03263 44.4742L36.2747 17.2325ZM83.9232 24.8939C84.3036 23.5082 85.1345 23.0386 86.6028 23.8633L105.634 42.6884H75.5411C73.3716 42.6241 73.3705 38.1101 75.6098 37.8793H79.9896C82.1854 37.6284 83.6519 36.5269 83.9232 34.0316V24.8939Z" fill="#E31E24" stroke="#E31E24" stroke-width="0.755906" stroke-miterlimit="22.9256"/>
<path d="M12.4996 62.5873L15.5323 62.3974C15.598 62.8899 15.7316 63.2652 15.9334 63.5232C16.2617 63.9407 16.7308 64.1494 17.3406 64.1494C17.7957 64.1494 18.1451 64.0439 18.3891 63.8328C18.6377 63.617 18.762 63.3684 18.762 63.0869C18.762 62.8195 18.6447 62.5803 18.4102 62.3692C18.1756 62.1581 17.6315 61.9588 16.7777 61.7711C15.3798 61.4568 14.383 61.0393 13.7872 60.5186C13.1868 59.9979 12.8866 59.3342 12.8866 58.5273C12.8866 57.9972 13.039 57.4977 13.344 57.0286C13.6536 56.5548 14.1156 56.1842 14.7301 55.9168C15.3493 55.6447 16.1961 55.5087 17.2703 55.5087C18.5884 55.5087 19.5923 55.755 20.2819 56.2475C20.9761 56.7354 21.3889 57.5141 21.5203 58.5836L18.5157 58.7595C18.436 58.2951 18.2671 57.9574 18.0091 57.7463C17.7558 57.5352 17.404 57.4296 16.9536 57.4296C16.5831 57.4296 16.3039 57.5094 16.1163 57.6689C15.9287 57.8237 15.8348 58.0137 15.8348 58.2388C15.8348 58.403 15.9122 58.5508 16.067 58.6821C16.2172 58.8182 16.5737 58.9448 17.1366 59.0621C18.5298 59.3623 19.5266 59.6672 20.1271 59.9768C20.7322 60.2817 21.1708 60.6617 21.4429 61.1167C21.7196 61.5717 21.858 62.0807 21.858 62.6436C21.858 63.3051 21.6751 63.9149 21.3092 64.4731C20.9433 65.0313 20.432 65.4559 19.7752 65.7467C19.1185 66.0328 18.2906 66.1759 17.2914 66.1759C15.537 66.1759 14.322 65.8382 13.6465 65.1627C12.971 64.4872 12.5887 63.6287 12.4996 62.5873ZM27.2409 55.6846H30.7802L32.863 59.1676L34.9458 55.6846H38.464L34.4532 61.6796V66H31.2587V61.6796L27.2409 55.6846ZM43.7554 62.5873L46.788 62.3974C46.8537 62.8899 46.9874 63.2652 47.1891 63.5232C47.5175 63.9407 47.9866 64.1494 48.5964 64.1494C49.0514 64.1494 49.4009 64.0439 49.6448 63.8328C49.8935 63.617 50.0178 63.3684 50.0178 63.0869C50.0178 62.8195 49.9005 62.5803 49.6659 62.3692C49.4314 62.1581 48.8872 61.9588 48.0335 61.7711C46.6356 61.4568 45.6388 61.0393 45.043 60.5186C44.4426 59.9979 44.1424 59.3342 44.1424 58.5273C44.1424 57.9972 44.2948 57.4977 44.5997 57.0286C44.9093 56.5548 45.3714 56.1842 45.9859 55.9168C46.6051 55.6447 47.4518 55.5087 48.526 55.5087C49.8442 55.5087 50.8481 55.755 51.5376 56.2475C52.2319 56.7354 52.6447 57.5141 52.776 58.5836L49.7715 58.7595C49.6917 58.2951 49.5229 57.9574 49.2649 57.7463C49.0116 57.5352 48.6597 57.4296 48.2094 57.4296C47.8388 57.4296 47.5597 57.5094 47.3721 57.6689C47.1844 57.8237 47.0906 58.0137 47.0906 58.2388C47.0906 58.403 47.168 58.5508 47.3228 58.6821C47.4729 58.8182 47.8294 58.9448 48.3924 59.0621C49.7856 59.3623 50.7824 59.6672 51.3828 59.9768C51.988 60.2817 52.4266 60.6617 52.6986 61.1167C52.9754 61.5717 53.1138 62.0807 53.1138 62.6436C53.1138 63.3051 52.9308 63.9149 52.5649 64.4731C52.1991 65.0313 51.6877 65.4559 51.031 65.7467C50.3743 66.0328 49.5463 66.1759 48.5472 66.1759C46.7927 66.1759 45.5778 65.8382 44.9023 65.1627C44.2268 64.4872 43.8445 63.6287 43.7554 62.5873ZM58.8133 55.6846H68.5024V58.2318H65.2516V66H62.0641V58.2318H58.8133V55.6846ZM74.7578 55.6846H83.3V57.887H77.9523V59.5265H82.913V61.6304H77.9523V63.6639H83.4548V66H74.7578V55.6846ZM89.9565 55.6846H94.1502L95.7685 61.9611L97.3799 55.6846H101.56V66H98.956V58.1333L96.9366 66H94.5794L92.567 58.1333V66H89.9565V55.6846ZM107.857 62.5873L110.89 62.3974C110.955 62.8899 111.089 63.2652 111.291 63.5232C111.619 63.9407 112.088 64.1494 112.698 64.1494C113.153 64.1494 113.503 64.0439 113.747 63.8328C113.995 63.617 114.12 63.3684 114.12 63.0869C114.12 62.8195 114.002 62.5803 113.768 62.3692C113.533 62.1581 112.989 61.9588 112.135 61.7711C110.737 61.4568 109.741 61.0393 109.145 60.5186C108.544 59.9979 108.244 59.3342 108.244 58.5273C108.244 57.9972 108.397 57.4977 108.701 57.0286C109.011 56.5548 109.473 56.1842 110.088 55.9168C110.707 55.6447 111.554 55.5087 112.628 55.5087C113.946 55.5087 114.95 55.755 115.639 56.2475C116.334 56.7354 116.746 57.5141 116.878 58.5836L113.873 58.7595C113.794 58.2951 113.625 57.9574 113.367 57.7463C113.113 57.5352 112.761 57.4296 112.311 57.4296C111.941 57.4296 111.661 57.5094 111.474 57.6689C111.286 57.8237 111.192 58.0137 111.192 58.2388C111.192 58.403 111.27 58.5508 111.425 58.6821C111.575 58.8182 111.931 58.9448 112.494 59.0621C113.887 59.3623 114.884 59.6672 115.485 59.9768C116.09 60.2817 116.528 60.6617 116.8 61.1167C117.077 61.5717 117.216 62.0807 117.216 62.6436C117.216 63.3051 117.033 63.9149 116.667 64.4731C116.301 65.0313 115.79 65.4559 115.133 65.7467C114.476 66.0328 113.648 66.1759 112.649 66.1759C110.895 66.1759 109.68 65.8382 109.004 65.1627C108.329 64.4872 107.946 63.6287 107.857 62.5873Z" fill="#2B2A29"/>
<path fill-rule="evenodd" clip-rule="evenodd" d="M110.269 72.7823V77.6912H123.402C123.659 77.6912 123.868 77.8982 123.867 78.1831V79.6091C123.867 79.8658 123.659 80.0739 123.402 80.0739L108.35 80.075C108.093 80.075 107.885 79.8662 107.885 79.6091V70.8641C107.885 70.607 108.093 70.3985 108.35 70.3985H123.402C123.659 70.3985 123.868 70.6052 123.867 70.8904V72.3163C123.867 72.5727 123.659 72.7815 123.402 72.7815L110.269 72.7823ZM106.498 69.9878L105.071 69.9886C104.814 69.9886 104.605 69.7798 104.605 69.5227C104.605 69.5088 104.606 69.4978 104.606 69.4897V68.0704C104.606 67.814 104.814 67.6063 105.071 67.606L106.498 67.6045C106.756 67.6041 106.964 67.8115 106.963 68.0967V69.5227C106.963 69.779 106.755 69.9878 106.498 69.9878ZM106.911 70.7862V79.6091C106.911 79.8665 106.702 80.075 106.445 80.075H105.071C104.814 80.075 104.605 79.8662 104.605 79.6091V70.7862C104.605 70.5291 104.814 70.3203 105.071 70.3203H106.445C106.702 70.3203 106.911 70.5287 106.911 70.7862ZM90.0124 72.7823V77.6912H103.114C103.371 77.6912 103.58 77.9001 103.58 78.1572C103.58 78.1696 103.579 78.1787 103.579 78.1846V79.6091C103.579 79.8658 103.371 80.0739 103.114 80.0739L88.0782 80.075C87.8211 80.075 87.6126 79.8662 87.6126 79.6091V68.0704C87.6126 67.8133 87.8211 67.6045 88.0782 67.6045H89.5465C89.8036 67.6045 90.0124 67.8133 90.0124 68.0704V70.3985H103.114C103.371 70.3985 103.58 70.607 103.58 70.8641C103.58 70.8765 103.579 70.886 103.579 70.8919V72.3163C103.579 72.5727 103.37 72.7815 103.114 72.7815L90.0124 72.7823ZM73.1248 76.1754V77.6927H86.2101C86.4668 77.6927 86.6749 77.9004 86.6749 78.1572V79.6091C86.6749 79.8658 86.4668 80.0739 86.2101 80.0739L71.1664 80.075C70.9093 80.075 70.7009 79.8662 70.7009 79.6091V70.9102C70.7009 70.6531 70.9093 70.4443 71.1664 70.4443H86.2101C86.4676 70.4443 86.676 70.6527 86.676 70.9102V75.7109C86.676 75.968 86.4672 76.1768 86.2101 76.1768C86.1973 76.1768 86.1882 76.1761 86.1823 76.1754H73.1248ZM67.3495 72.7527H56.1714V79.6091C56.1714 79.8654 55.9633 80.0739 55.707 80.0739H54.2547C53.9983 80.0739 53.7903 79.8654 53.7903 79.6091L53.7888 70.7862C53.7888 70.5291 53.9976 70.3203 54.2547 70.3203H69.2742C69.5313 70.3203 69.7402 70.5291 69.7402 70.7862V79.6091C69.7402 79.8662 69.5313 80.075 69.2742 80.075H67.8139C67.5568 80.075 67.3484 79.8662 67.3484 79.6091C67.3484 79.5955 67.3487 79.5846 67.3495 79.5765V72.7527ZM36.4748 73.7525V72.7823H23.3811C23.124 72.7823 22.9156 72.5734 22.9156 72.3163C22.9156 72.3025 22.9159 72.2915 22.9167 72.2834V70.8641C22.9167 70.6077 23.1247 70.3996 23.3811 70.3996L38.4332 70.3985C38.6903 70.3985 38.8987 70.607 38.8987 70.8641V79.6091C38.8987 79.8662 38.6903 80.075 38.4332 80.075H23.3811C23.124 80.075 22.9156 79.8662 22.9156 79.6091V74.2184C22.9156 73.9613 23.124 73.7525 23.3811 73.7525H36.4748ZM50.745 80.4688V80.0428H40.231C39.9739 80.0428 39.7651 79.834 39.7651 79.5769V70.8023C39.7651 70.5452 39.9739 70.3364 40.231 70.3364C40.2464 70.3364 40.2574 70.3367 40.2647 70.3382L52.3705 70.3294C52.6273 70.3294 52.835 70.5375 52.835 70.7942L52.8365 82.4192C52.8365 82.6763 52.6276 82.8851 52.3705 82.8851H40.231C39.9739 82.8851 39.7651 82.6763 39.7651 82.4192V80.9348C39.7651 80.6777 39.9739 80.4688 40.231 80.4688H50.745ZM19.5386 72.7808H15.2546V79.6091C15.2546 79.8665 15.0461 80.075 14.7887 80.075H13.3287C13.0713 80.075 12.8628 79.8665 12.8628 79.6091V72.7808H8.44388V79.6091C8.44388 79.8665 8.23542 80.075 7.97796 80.075H6.59593C6.33883 80.075 6.13037 79.8662 6.13037 79.6091V70.8641C6.13037 70.607 6.33883 70.3985 6.59593 70.3985H21.4648C21.7219 70.3985 21.9307 70.607 21.9307 70.8641V79.6091C21.9307 79.8662 21.7219 80.075 21.4648 80.075H20.0045C19.7474 80.075 19.5386 79.8662 19.5386 79.6091V72.7808ZM73.1248 72.828V73.7927H84.2842V72.828H73.1248ZM36.4748 77.6912V76.1607H25.2993V77.6912H36.4748ZM50.7435 77.6185V72.7607H41.8581V77.6185H50.7435Z" fill="#898778"/>
<path d="M123.402 72.6362H110.123V77.8377H123.402C123.579 77.8377 123.722 77.9811 123.722 78.1574C123.722 78.1658 123.721 78.1735 123.721 78.1815V79.6093C123.721 79.7852 123.578 79.9278 123.402 79.9278V79.9289H108.351C108.174 79.9289 108.031 79.7859 108.031 79.6093V79.6009V70.8643C108.031 70.688 108.174 70.545 108.351 70.545H108.359H123.402C123.579 70.545 123.722 70.688 123.722 70.8643C123.722 70.8727 123.721 70.8808 123.721 70.8888V72.3165C123.721 72.4921 123.578 72.6347 123.402 72.6347V72.6362ZM106.499 69.8425H105.071C104.895 69.8425 104.751 69.6991 104.751 69.5229C104.751 69.5126 104.752 69.5024 104.753 69.4925V68.0706C104.753 67.8951 104.895 67.7524 105.071 67.7524V67.751H106.499C106.675 67.751 106.818 67.8943 106.818 68.0706C106.818 68.079 106.818 68.0871 106.817 68.0951V69.5229C106.817 69.6984 106.675 69.841 106.499 69.841V69.8425ZM106.765 70.7864V79.6093C106.765 79.7859 106.622 79.9289 106.445 79.9289H105.071C104.895 79.9289 104.751 79.7859 104.751 79.6093V79.6009V70.7864C104.751 70.6098 104.895 70.4668 105.071 70.4668H105.079H106.445C106.622 70.4668 106.765 70.6098 106.765 70.7864ZM103.114 72.6362H89.8663V77.8377H103.114C103.291 77.8377 103.434 77.9811 103.434 78.1574C103.434 78.1658 103.433 78.1735 103.433 78.1815V79.6093C103.433 79.7852 103.29 79.9278 103.114 79.9278V79.9289H88.0784C87.9021 79.9289 87.7591 79.7859 87.7591 79.6093V79.6009V68.0706C87.7591 67.8943 87.9021 67.751 88.0784 67.751H88.0864H89.5467C89.723 67.751 89.8663 67.8943 89.8663 68.0706V70.545H103.114C103.291 70.545 103.434 70.688 103.434 70.8643C103.434 70.8727 103.433 70.8808 103.433 70.8888V72.3165C103.433 72.4921 103.29 72.6347 103.114 72.6347V72.6362ZM72.9788 72.6819V73.9392H84.4307V72.6819H72.9788ZM70.8474 79.6093V79.6009V70.9104C70.8474 70.7337 70.9904 70.5907 71.1666 70.5907H71.1747H86.2103C86.3869 70.5907 86.5299 70.7337 86.5299 70.9104V75.7111C86.5299 75.8874 86.3869 76.0307 86.2103 76.0307C86.2023 76.0307 86.1938 76.03 86.1858 76.0293H72.9788V77.8392H86.2103C86.3862 77.8392 86.5288 77.9815 86.5288 78.1574V79.6093C86.5288 79.7852 86.3862 79.9278 86.2103 79.9278V79.9289H71.1666C70.9904 79.9289 70.8474 79.7859 70.8474 79.6093ZM54.2549 70.4668H54.263H69.2744C69.4507 70.4668 69.5941 70.6098 69.5941 70.7864V79.6093C69.5941 79.7859 69.4507 79.9289 69.2744 79.9289H67.8141C67.6379 79.9289 67.4949 79.7859 67.4949 79.6093C67.4949 79.5994 67.4952 79.5891 67.496 79.5793V72.6066H56.0253V79.6093C56.0253 79.7852 55.8827 79.9278 55.7072 79.9278H54.2549C54.0794 79.9278 53.9367 79.7852 53.9367 79.6093H53.9353V70.7864C53.9353 70.6098 54.0786 70.4668 54.2549 70.4668ZM38.7526 70.8643V79.6093C38.7526 79.7859 38.6097 79.9289 38.4334 79.9289H23.3813C23.205 79.9289 23.062 79.7859 23.062 79.6093V79.6009V74.2186C23.062 74.042 23.205 73.899 23.3813 73.899H23.3894H36.6213V72.6362H23.3813C23.205 72.6362 23.062 72.4928 23.062 72.3165C23.062 72.3063 23.0624 72.2961 23.0631 72.2862V70.8643C23.0631 70.6888 23.2058 70.5461 23.3813 70.5461V70.545H38.4334C38.6097 70.545 38.7526 70.688 38.7526 70.8643ZM36.6213 77.8377V76.0147H25.1532V77.8377H36.6213ZM52.3707 82.739H40.2312C40.055 82.739 39.9116 82.5957 39.9116 82.4194V82.411V80.935C39.9116 80.7587 40.055 80.6153 40.2312 80.6153H40.2393H50.8914V79.8967H40.2312C40.055 79.8967 39.9116 79.7533 39.9116 79.5771V79.5687V70.8025C39.9116 70.6259 40.055 70.4829 40.2312 70.4829C40.2415 70.4829 40.251 70.4832 40.2609 70.4843L52.3707 70.4759C52.5467 70.4759 52.6889 70.6185 52.6889 70.7944H52.6904V82.4194C52.6904 82.5957 52.547 82.739 52.3707 82.739ZM50.89 77.765V72.6146H41.712V77.765H50.89ZM21.7846 70.8643V79.6093C21.7846 79.7859 21.6412 79.9289 21.465 79.9289H20.0047C19.8284 79.9289 19.685 79.7859 19.685 79.6093V79.6009V72.6347H15.1085V79.6093C15.1085 79.7859 14.9655 79.9289 14.7889 79.9289H13.3289C13.1523 79.9289 13.0093 79.7859 13.0093 79.6093V79.6009V72.6347H8.29779V79.6093C8.29779 79.7859 8.1548 79.9289 7.97816 79.9289H6.59612C6.41985 79.9289 6.27686 79.7859 6.27686 79.6093V79.6009V70.8643C6.27686 70.688 6.41985 70.545 6.59612 70.545H6.60417H21.465C21.6412 70.545 21.7846 70.688 21.7846 70.8643Z" fill="#E31E24"/>
</svg>
