<svg width="193" height="144" viewBox="0 0 193 144" fill="none" xmlns="http://www.w3.org/2000/svg">
<path fill-rule="evenodd" clip-rule="evenodd" d="M116.913 27.8259C117.934 29.2567 118.894 30.7329 119.796 32.2475L192 143L57.3275 128.302L57.3309 128.296C25.6097 124.563 1 97.5927 1 64.8704C1 29.5957 29.5976 1 64.8747 1C86.1479 1 104.991 11.3998 116.599 27.3904L116.615 27.3694L116.913 27.8259Z" fill="#F5F5F5" stroke="#2B2A29" stroke-miterlimit="22.9256"/>
<path fill-rule="evenodd" clip-rule="evenodd" d="M36.3686 17.4709C38.5799 16.0959 40.1216 15.1625 43.2892 14.7778H85.698C88.6693 14.7974 91.0907 15.667 93.0618 17.2322L120.334 44.6394C121.997 46.6666 121.24 51.6234 117.744 51.8662L72.4368 51.9345C71.6754 52.0031 70.8686 51.6162 70.0161 50.7754L55.3913 36.1853C53.7923 33.9379 54.6724 29.1835 58.5618 28.8225L72.505 28.7883C74.8459 28.7996 74.8343 24.0725 72.4709 24.1182L45.1982 24.0499C43.3411 24.1232 41.9638 24.9761 40.8344 26.2317L24.3685 42.7647L42.0618 42.7302L42.1239 32.4351C42.681 27.5581 50.6443 27.5948 51.3603 32.4217L51.3668 48.1505C51.1723 50.1196 49.7337 51.7947 47.5162 51.8662H11.9253C9.06399 51.5247 7.55931 47.5829 9.33437 44.503L36.3686 17.4709ZM83.6537 25.0733C84.0311 23.6983 84.8557 23.2323 86.3128 24.0507L105.199 42.731H75.3355C73.1826 42.6671 73.1815 38.1878 75.4037 37.9588H79.7501C81.9291 37.7099 83.3844 36.6168 83.6537 34.1407V25.0733Z" fill="#E31E24" stroke="#E31E24" stroke-width="0.755906" stroke-miterlimit="22.9256"/>
<path d="M12.4996 62.5873L15.5323 62.3974C15.598 62.8899 15.7316 63.2652 15.9334 63.5232C16.2617 63.9407 16.7308 64.1494 17.3406 64.1494C17.7957 64.1494 18.1451 64.0439 18.3891 63.8328C18.6377 63.617 18.762 63.3684 18.762 63.0869C18.762 62.8195 18.6447 62.5803 18.4102 62.3692C18.1756 62.1581 17.6315 61.9588 16.7777 61.7711C15.3798 61.4568 14.383 61.0393 13.7872 60.5186C13.1868 59.9979 12.8866 59.3342 12.8866 58.5273C12.8866 57.9972 13.039 57.4977 13.344 57.0286C13.6536 56.5548 14.1156 56.1842 14.7301 55.9168C15.3493 55.6447 16.1961 55.5087 17.2703 55.5087C18.5884 55.5087 19.5923 55.755 20.2819 56.2475C20.9761 56.7354 21.3889 57.5141 21.5203 58.5836L18.5157 58.7595C18.436 58.2951 18.2671 57.9574 18.0091 57.7463C17.7558 57.5352 17.404 57.4296 16.9536 57.4296C16.5831 57.4296 16.3039 57.5094 16.1163 57.6689C15.9287 57.8237 15.8348 58.0137 15.8348 58.2388C15.8348 58.403 15.9122 58.5508 16.067 58.6821C16.2172 58.8182 16.5737 58.9448 17.1366 59.0621C18.5298 59.3623 19.5266 59.6672 20.1271 59.9768C20.7322 60.2817 21.1708 60.6617 21.4429 61.1167C21.7196 61.5717 21.858 62.0807 21.858 62.6436C21.858 63.3051 21.6751 63.9149 21.3092 64.4731C20.9433 65.0313 20.432 65.4559 19.7752 65.7467C19.1185 66.0328 18.2906 66.1759 17.2914 66.1759C15.537 66.1759 14.322 65.8382 13.6465 65.1627C12.971 64.4872 12.5887 63.6287 12.4996 62.5873ZM27.2409 55.6846H30.7802L32.863 59.1676L34.9458 55.6846H38.464L34.4532 61.6796V66H31.2587V61.6796L27.2409 55.6846ZM43.7554 62.5873L46.788 62.3974C46.8537 62.8899 46.9874 63.2652 47.1891 63.5232C47.5175 63.9407 47.9866 64.1494 48.5964 64.1494C49.0514 64.1494 49.4009 64.0439 49.6448 63.8328C49.8935 63.617 50.0178 63.3684 50.0178 63.0869C50.0178 62.8195 49.9005 62.5803 49.6659 62.3692C49.4314 62.1581 48.8872 61.9588 48.0335 61.7711C46.6356 61.4568 45.6388 61.0393 45.043 60.5186C44.4426 59.9979 44.1424 59.3342 44.1424 58.5273C44.1424 57.9972 44.2948 57.4977 44.5997 57.0286C44.9093 56.5548 45.3714 56.1842 45.9859 55.9168C46.6051 55.6447 47.4518 55.5087 48.526 55.5087C49.8442 55.5087 50.8481 55.755 51.5376 56.2475C52.2319 56.7354 52.6447 57.5141 52.776 58.5836L49.7715 58.7595C49.6917 58.2951 49.5229 57.9574 49.2649 57.7463C49.0116 57.5352 48.6597 57.4296 48.2094 57.4296C47.8388 57.4296 47.5597 57.5094 47.3721 57.6689C47.1844 57.8237 47.0906 58.0137 47.0906 58.2388C47.0906 58.403 47.168 58.5508 47.3228 58.6821C47.4729 58.8182 47.8294 58.9448 48.3924 59.0621C49.7856 59.3623 50.7824 59.6672 51.3828 59.9768C51.988 60.2817 52.4266 60.6617 52.6986 61.1167C52.9754 61.5717 53.1138 62.0807 53.1138 62.6436C53.1138 63.3051 52.9308 63.9149 52.5649 64.4731C52.1991 65.0313 51.6877 65.4559 51.031 65.7467C50.3743 66.0328 49.5463 66.1759 48.5472 66.1759C46.7927 66.1759 45.5778 65.8382 44.9023 65.1627C44.2268 64.4872 43.8445 63.6287 43.7554 62.5873ZM58.8133 55.6846H68.5024V58.2318H65.2516V66H62.0641V58.2318H58.8133V55.6846ZM74.7578 55.6846H83.3V57.887H77.9523V59.5265H82.913V61.6304H77.9523V63.6639H83.4548V66H74.7578V55.6846ZM89.9565 55.6846H94.1502L95.7685 61.9611L97.3799 55.6846H101.56V66H98.956V58.1333L96.9366 66H94.5794L92.567 58.1333V66H89.9565V55.6846ZM107.857 62.5873L110.89 62.3974C110.955 62.8899 111.089 63.2652 111.291 63.5232C111.619 63.9407 112.088 64.1494 112.698 64.1494C113.153 64.1494 113.503 64.0439 113.747 63.8328C113.995 63.617 114.12 63.3684 114.12 63.0869C114.12 62.8195 114.002 62.5803 113.768 62.3692C113.533 62.1581 112.989 61.9588 112.135 61.7711C110.737 61.4568 109.741 61.0393 109.145 60.5186C108.544 59.9979 108.244 59.3342 108.244 58.5273C108.244 57.9972 108.397 57.4977 108.701 57.0286C109.011 56.5548 109.473 56.1842 110.088 55.9168C110.707 55.6447 111.554 55.5087 112.628 55.5087C113.946 55.5087 114.95 55.755 115.639 56.2475C116.334 56.7354 116.746 57.5141 116.878 58.5836L113.873 58.7595C113.794 58.2951 113.625 57.9574 113.367 57.7463C113.113 57.5352 112.761 57.4296 112.311 57.4296C111.941 57.4296 111.661 57.5094 111.474 57.6689C111.286 57.8237 111.192 58.0137 111.192 58.2388C111.192 58.403 111.27 58.5508 111.425 58.6821C111.575 58.8182 111.931 58.9448 112.494 59.0621C113.887 59.3623 114.884 59.6672 115.485 59.9768C116.09 60.2817 116.528 60.6617 116.8 61.1167C117.077 61.5717 117.216 62.0807 117.216 62.6436C117.216 63.3051 117.033 63.9149 116.667 64.4731C116.301 65.0313 115.79 65.4559 115.133 65.7467C114.476 66.0328 113.648 66.1759 112.649 66.1759C110.895 66.1759 109.68 65.8382 109.004 65.1627C108.329 64.4872 107.946 63.6287 107.857 62.5873Z" fill="#2B2A29"/>
<path fill-rule="evenodd" clip-rule="evenodd" d="M109.798 72.593V77.4642H122.832C123.087 77.4642 123.294 77.6696 123.293 77.9523V79.3673C123.293 79.622 123.087 79.8285 122.832 79.8285L107.895 79.8296C107.64 79.8296 107.433 79.6224 107.433 79.3673V70.6896C107.433 70.4345 107.64 70.2276 107.895 70.2276H122.832C123.087 70.2276 123.294 70.4327 123.293 70.7157V72.1307C123.293 72.3851 123.086 72.5923 122.832 72.5923L109.798 72.593ZM106.057 69.8201L104.64 69.8208C104.385 69.8208 104.178 69.6136 104.178 69.3585C104.178 69.3447 104.179 69.3338 104.179 69.3258V67.9174C104.179 67.663 104.386 67.4569 104.64 67.4565L106.057 67.4551C106.312 67.4547 106.519 67.6605 106.518 67.9435V69.3585C106.518 69.6129 106.311 69.8201 106.057 69.8201ZM106.466 70.6123V79.3673C106.466 79.6228 106.259 79.8296 106.004 79.8296H104.64C104.385 79.8296 104.178 79.6224 104.178 79.3673V70.6123C104.178 70.3572 104.385 70.15 104.64 70.15H106.004C106.259 70.15 106.466 70.3568 106.466 70.6123ZM89.6968 72.593V77.4642H102.698C102.953 77.4642 103.161 77.6714 103.161 77.9266C103.161 77.9389 103.16 77.948 103.159 77.9538V79.3673C103.159 79.622 102.953 79.8285 102.698 79.8285L87.7773 79.8296C87.5221 79.8296 87.3153 79.6224 87.3153 79.3673V67.9174C87.3153 67.6623 87.5221 67.4551 87.7773 67.4551H89.2344C89.4895 67.4551 89.6968 67.6623 89.6968 67.9174V70.2276H102.698C102.953 70.2276 103.161 70.4345 103.161 70.6896C103.161 70.7019 103.16 70.7114 103.159 70.7172V72.1307C103.159 72.3851 102.953 72.5923 102.698 72.5923L89.6968 72.593ZM72.938 75.96V77.4657H85.9234C86.1782 77.4657 86.3847 77.6718 86.3847 77.9266V79.3673C86.3847 79.622 86.1782 79.8285 85.9234 79.8285L70.9945 79.8296C70.7394 79.8296 70.5325 79.6224 70.5325 79.3673V70.7353C70.5325 70.4802 70.7394 70.273 70.9945 70.273H85.9234C86.1789 70.273 86.3858 70.4798 86.3858 70.7353V75.4991C86.3858 75.7542 86.1786 75.9615 85.9234 75.9615C85.9107 75.9615 85.9017 75.9607 85.8959 75.96H72.938ZM67.2067 72.5636H56.1139V79.3673C56.1139 79.6217 55.9074 79.8285 55.653 79.8285H54.2118C53.9574 79.8285 53.7509 79.6217 53.7509 79.3673L53.7495 70.6123C53.7495 70.3572 53.9567 70.15 54.2118 70.15H69.1168C69.3719 70.15 69.5791 70.3572 69.5791 70.6123V79.3673C69.5791 79.6224 69.3719 79.8296 69.1168 79.8296H67.6676C67.4125 79.8296 67.2056 79.6224 67.2056 79.3673C67.2056 79.3538 67.206 79.343 67.2067 79.335V72.5636ZM36.5675 73.5558V72.593H23.5737C23.3186 72.593 23.1117 72.3858 23.1117 72.1307C23.1117 72.1169 23.1121 72.106 23.1128 72.098V70.6896C23.1128 70.4352 23.3193 70.2287 23.5737 70.2287L38.511 70.2276C38.7661 70.2276 38.973 70.4345 38.973 70.6896V79.3673C38.973 79.6224 38.7661 79.8296 38.511 79.8296H23.5737C23.3186 79.8296 23.1117 79.6224 23.1117 79.3673V74.0181C23.1117 73.763 23.3186 73.5558 23.5737 73.5558H36.5675ZM50.7288 80.2204V79.7977H40.2951C40.04 79.7977 39.8328 79.5905 39.8328 79.3353V70.6283C39.8328 70.3732 40.04 70.1659 40.2951 70.1659C40.3104 70.1659 40.3213 70.1663 40.3285 70.1678L52.342 70.159C52.5968 70.159 52.803 70.3655 52.803 70.6203L52.8044 82.1558C52.8044 82.4109 52.5972 82.6181 52.342 82.6181H40.2951C40.04 82.6181 39.8328 82.4109 39.8328 82.1558V80.6828C39.8328 80.4277 40.04 80.2204 40.2951 80.2204H50.7288ZM19.7605 72.5916H15.5092V79.3673C15.5092 79.6228 15.3023 79.8296 15.0468 79.8296H13.598C13.3425 79.8296 13.1357 79.6228 13.1357 79.3673V72.5916H8.75045V79.3673C8.75045 79.6228 8.54358 79.8296 8.28808 79.8296H6.91659C6.66146 79.8296 6.45459 79.6224 6.45459 79.3673V70.6896C6.45459 70.4345 6.66146 70.2276 6.91659 70.2276H21.672C21.9272 70.2276 22.1344 70.4345 22.1344 70.6896V79.3673C22.1344 79.6224 21.9272 79.8296 21.672 79.8296H20.2229C19.9677 79.8296 19.7605 79.6224 19.7605 79.3673V72.5916ZM72.938 72.6384V73.5957H84.0123V72.6384H72.938ZM36.5675 77.4642V75.9455H25.4773V77.4642H36.5675ZM50.7274 77.392V72.5716H41.9098V77.392H50.7274Z" fill="#898778"/>
<path d="M122.832 72.4477H109.653V77.6093H122.832C123.007 77.6093 123.149 77.7515 123.149 77.9264C123.149 77.9348 123.148 77.9424 123.148 77.9504V79.3671C123.148 79.5417 123.006 79.6832 122.832 79.6832V79.6843H107.895C107.72 79.6843 107.578 79.5424 107.578 79.3671V79.3588V70.6895C107.578 70.5145 107.72 70.3727 107.895 70.3727H107.903H122.832C123.007 70.3727 123.149 70.5145 123.149 70.6895C123.149 70.6978 123.148 70.7058 123.148 70.7138V72.1305C123.148 72.3047 123.006 72.4463 122.832 72.4463V72.4477ZM106.057 69.6755H104.64C104.465 69.6755 104.323 69.5333 104.323 69.3584C104.323 69.3482 104.324 69.338 104.324 69.3282V67.9173C104.324 67.7431 104.466 67.6016 104.64 67.6016V67.6001H106.057C106.232 67.6001 106.374 67.7424 106.374 67.9173C106.374 67.9256 106.373 67.9336 106.373 67.9416V69.3584C106.373 69.5325 106.231 69.6741 106.057 69.6741V69.6755ZM106.321 70.6122V79.3671C106.321 79.5424 106.179 79.6843 106.004 79.6843H104.64C104.465 79.6843 104.323 79.5424 104.323 79.3671V79.3588V70.6122C104.323 70.4369 104.465 70.295 104.64 70.295H104.648H106.004C106.179 70.295 106.321 70.4369 106.321 70.6122ZM102.698 72.4477H89.5514V77.6093H102.698C102.873 77.6093 103.015 77.7515 103.015 77.9264C103.015 77.9348 103.015 77.9424 103.014 77.9504V79.3671C103.014 79.5417 102.873 79.6832 102.698 79.6832V79.6843H87.7771C87.6022 79.6843 87.4603 79.5424 87.4603 79.3671V79.3588V67.9173C87.4603 67.7424 87.6022 67.6001 87.7771 67.6001H87.7851H89.2343C89.4092 67.6001 89.5514 67.7424 89.5514 67.9173V70.3727H102.698C102.873 70.3727 103.015 70.5145 103.015 70.6895C103.015 70.6978 103.015 70.7058 103.014 70.7138V72.1305C103.014 72.3047 102.873 72.4463 102.698 72.4463V72.4477ZM72.7927 72.4931V73.7407H84.1573V72.4931H72.7927ZM70.6776 79.3671V79.3588V70.7352C70.6776 70.5599 70.8195 70.418 70.9944 70.418H71.0024H85.9233C86.0986 70.418 86.2405 70.5599 86.2405 70.7352V75.499C86.2405 75.6739 86.0986 75.8162 85.9233 75.8162C85.9153 75.8162 85.907 75.8154 85.899 75.8147H72.7927V77.6107H85.9233C86.0979 77.6107 86.2394 77.7519 86.2394 77.9264V79.3671C86.2394 79.5417 86.0979 79.6832 85.9233 79.6832V79.6843H70.9944C70.8195 79.6843 70.6776 79.5424 70.6776 79.3671ZM54.2117 70.295H54.2197H69.1166C69.2916 70.295 69.4338 70.4369 69.4338 70.6122V79.3671C69.4338 79.5424 69.2916 79.6843 69.1166 79.6843H67.6675C67.4925 79.6843 67.3506 79.5424 67.3506 79.3671C67.3506 79.3573 67.351 79.3472 67.3517 79.3374V72.4183H55.9686V79.3671C55.9686 79.5417 55.8271 79.6832 55.6529 79.6832H54.2117C54.0375 79.6832 53.8959 79.5417 53.8959 79.3671H53.8945V70.6122C53.8945 70.4369 54.0367 70.295 54.2117 70.295ZM38.8277 70.6895V79.3671C38.8277 79.5424 38.6858 79.6843 38.5108 79.6843H23.5736C23.3987 79.6843 23.2568 79.5424 23.2568 79.3671V79.3588V74.018C23.2568 73.8427 23.3987 73.7008 23.5736 73.7008H23.5816H36.7125V72.4477H23.5736C23.3987 72.4477 23.2568 72.3055 23.2568 72.1305C23.2568 72.1204 23.2571 72.1102 23.2578 72.1004V70.6895C23.2578 70.5153 23.3994 70.3737 23.5736 70.3737V70.3727H38.5108C38.6858 70.3727 38.8277 70.5145 38.8277 70.6895ZM36.7125 77.6093V75.8002H25.332V77.6093H36.7125ZM52.3419 82.4728H40.295C40.12 82.4728 39.9778 82.3306 39.9778 82.1557V82.1473V80.6826C39.9778 80.5077 40.12 80.3655 40.295 80.3655H40.303H50.8739V79.6524H40.295C40.12 79.6524 39.9778 79.5101 39.9778 79.3352V79.3268V70.6282C39.9778 70.4529 40.12 70.311 40.295 70.311C40.3051 70.311 40.3146 70.3113 40.3244 70.3124L52.3419 70.3041C52.5165 70.3041 52.6576 70.4456 52.6576 70.6201H52.6591V82.1557C52.6591 82.3306 52.5168 82.4728 52.3419 82.4728ZM50.8724 77.537V72.4263H41.7645V77.537H50.8724ZM21.9891 70.6895V79.3671C21.9891 79.5424 21.8468 79.6843 21.6719 79.6843H20.2227C20.0478 79.6843 19.9055 79.5424 19.9055 79.3671V79.3588V72.4463H15.3639V79.3671C15.3639 79.5424 15.222 79.6843 15.0467 79.6843H13.5979C13.4226 79.6843 13.2807 79.5424 13.2807 79.3671V79.3588V72.4463H8.60513V79.3671C8.60513 79.5424 8.46323 79.6843 8.28793 79.6843H6.91644C6.74151 79.6843 6.59961 79.5424 6.59961 79.3671V79.3588V70.6895C6.59961 70.5145 6.74151 70.3727 6.91644 70.3727H6.92443H21.6719C21.8468 70.3727 21.9891 70.5145 21.9891 70.6895Z" fill="#E31E24"/>
<path d="M50.7554 106.933H60.3017V117.679H57.4648V109.231H53.5924V117.679H50.7554V106.933ZM63.3042 106.933H65.9547V108.51C66.2998 107.971 66.7625 107.536 67.349 107.202C67.9359 106.87 68.588 106.705 69.3026 106.705C70.5486 106.705 71.6079 107.195 72.4779 108.175C73.3474 109.152 73.7822 110.518 73.7822 112.264C73.7822 114.062 73.3442 115.457 72.4673 116.454C71.5909 117.451 70.5279 117.948 69.2783 117.948C68.6849 117.948 68.1463 117.831 67.6633 117.593C67.1835 117.358 66.6725 116.954 66.1412 116.381V121.758H63.3042V106.933ZM66.0998 112.14C66.0998 113.351 66.3379 114.245 66.8177 114.825C67.2938 115.402 67.8771 115.691 68.5605 115.691C69.2199 115.691 69.7686 115.425 70.2067 114.894C70.6451 114.363 70.8625 113.493 70.8625 112.282C70.8625 111.15 70.6382 110.311 70.186 109.762C69.7374 109.214 69.1781 108.941 68.5122 108.941C67.8186 108.941 67.2419 109.21 66.7865 109.749C66.3274 110.287 66.0998 111.084 66.0998 112.14ZM75.3733 112.175C75.3733 111.229 75.6045 110.314 76.0704 109.431C76.5364 108.544 77.1955 107.871 78.048 107.405C78.9005 106.939 79.8496 106.705 80.9024 106.705C82.528 106.705 83.8566 107.233 84.8953 108.289C85.9344 109.348 86.4519 110.68 86.4519 112.295C86.4519 113.924 85.9275 115.274 84.8815 116.344C83.8327 117.413 82.5142 117.948 80.9231 117.948C79.9396 117.948 79.0007 117.724 78.1068 117.279C77.2162 116.833 76.5364 116.181 76.0704 115.318C75.6045 114.459 75.3733 113.41 75.3733 112.175ZM78.293 112.327C78.293 113.393 78.5452 114.211 79.049 114.777C79.5563 115.346 80.1777 115.629 80.9195 115.629C81.658 115.629 82.2794 115.346 82.7798 114.777C83.2803 114.211 83.5322 113.386 83.5322 112.306C83.5322 111.253 83.2803 110.442 82.7798 109.876C82.2794 109.307 81.658 109.024 80.9195 109.024C80.1777 109.024 79.5563 109.307 79.049 109.876C78.5452 110.442 78.293 111.26 78.293 112.327ZM97.2961 117.679H89.1579V120.516H86.8595V115.36H88.019C88.5021 114.818 88.8991 113.976 89.2167 112.827C89.5306 111.681 89.7204 109.714 89.7792 106.933H98.4556V115.36H99.6155V120.516H97.2961V117.679ZM95.6393 115.36L95.6499 109.272H92.2021C92.0881 112.244 91.6189 114.273 90.7939 115.36H95.6393ZM103.67 110.245L101.103 109.79C101.393 108.741 101.893 107.964 102.601 107.461C103.308 106.956 104.361 106.705 105.755 106.705C107.022 106.705 107.968 106.853 108.588 107.154C109.207 107.454 109.645 107.833 109.897 108.296C110.149 108.758 110.276 109.603 110.276 110.839L110.235 114.152C110.235 115.094 110.28 115.791 110.369 116.24C110.459 116.689 110.628 117.168 110.877 117.679H108.06C107.988 117.493 107.895 117.217 107.788 116.851C107.743 116.682 107.708 116.571 107.688 116.52C107.205 116.996 106.687 117.351 106.135 117.589C105.582 117.827 104.996 117.948 104.371 117.948C103.27 117.948 102.401 117.648 101.766 117.048C101.13 116.451 100.813 115.691 100.813 114.773C100.813 114.169 100.958 113.628 101.248 113.151C101.538 112.678 101.942 112.312 102.466 112.061C102.987 111.809 103.739 111.588 104.723 111.398C106.048 111.15 106.97 110.915 107.481 110.701V110.415C107.481 109.863 107.346 109.469 107.077 109.231C106.804 108.996 106.293 108.879 105.545 108.879C105.037 108.879 104.644 108.979 104.361 109.182C104.074 109.383 103.847 109.738 103.67 110.245ZM107.481 112.544C107.118 112.665 106.542 112.81 105.752 112.979C104.965 113.148 104.447 113.313 104.205 113.472C103.836 113.738 103.65 114.069 103.65 114.473C103.65 114.873 103.798 115.215 104.095 115.505C104.392 115.795 104.768 115.94 105.227 115.94C105.738 115.94 106.228 115.771 106.694 115.436C107.036 115.177 107.263 114.867 107.37 114.494C107.443 114.252 107.481 113.79 107.481 113.11V112.544ZM117.528 117.679V113.103C117.158 113.13 116.899 113.213 116.754 113.351C116.609 113.489 116.354 113.897 115.992 114.577L114.639 117.679H111.584L113.1 114.718C113.869 113.241 114.666 112.392 115.495 112.178C114.877 111.94 114.404 111.329 114.076 110.339C113.824 109.6 113.6 109.159 113.393 109.013C113.189 108.869 112.709 108.796 111.957 108.796V106.922C112.516 106.888 112.906 106.87 113.127 106.87C113.752 106.87 114.287 107.008 114.732 107.285C115.177 107.564 115.595 108.254 115.985 109.355C116.285 110.215 116.53 110.756 116.71 110.984C116.893 111.208 117.165 111.329 117.528 111.343V106.933H120.365V111.343C120.727 111.343 121.003 111.226 121.186 110.988C121.372 110.753 121.614 110.208 121.907 109.355C122.294 108.268 122.701 107.581 123.136 107.295C123.567 107.012 124.126 106.87 124.806 106.87C125 106.87 125.376 106.888 125.935 106.922V108.796C125.189 108.796 124.713 108.869 124.503 109.013C124.295 109.159 124.068 109.6 123.819 110.339C123.488 111.329 123.015 111.94 122.397 112.178C123.226 112.392 124.023 113.241 124.792 114.718L126.308 117.679H123.253L121.911 114.577C121.669 114.024 121.445 113.648 121.238 113.448C121.034 113.244 120.741 113.13 120.365 113.103V117.679H117.528Z" fill="#2B2A29"/>
<path d="M47.6133 93.1963C47.6133 91.6848 47.8412 90.415 48.2934 89.3866C48.628 88.6307 49.0907 87.951 49.674 87.3504C50.2572 86.7498 50.8956 86.3048 51.5895 86.0113C52.5142 85.6215 53.5808 85.4248 54.7887 85.4248C56.9767 85.4248 58.7231 86.1045 60.038 87.4607C61.3496 88.8205 62.0054 90.7083 62.0054 93.1274C62.0054 95.5261 61.3529 97.4034 60.0518 98.7563C58.7507 100.112 57.0079 100.789 54.83 100.789C52.6249 100.789 50.868 100.116 49.5669 98.7665C48.2658 97.4205 47.6133 95.5639 47.6133 93.1963ZM50.6989 93.0965C50.6989 94.7771 51.089 96.0505 51.8653 96.92C52.642 97.7863 53.6291 98.2214 54.8231 98.2214C56.0208 98.2214 57.001 97.7899 57.7704 96.9305C58.5369 96.0679 58.9198 94.7771 58.9198 93.0551C58.9198 91.3535 58.5471 90.0837 57.7984 89.2483C57.0526 88.41 56.0622 87.9923 54.8231 87.9923C53.5877 87.9923 52.5901 88.4169 51.8345 89.2621C51.0785 90.1113 50.6989 91.388 50.6989 93.0965ZM73.1428 98.7803V100.52H70.2024V98.7803C67.8314 98.6939 66.1609 98.1074 65.1843 97.0271C64.2073 95.9435 63.7206 94.5906 63.7206 92.9652C63.7206 91.2537 64.2316 89.8834 65.2496 88.848C66.2712 87.8127 67.9211 87.2502 70.2024 87.1642V85.6937H73.1428V87.1642C75.5 87.2502 77.167 87.8301 78.1505 88.9032C79.1344 89.9731 79.6243 91.3328 79.6243 92.9757C79.6243 94.608 79.1344 95.9609 78.1574 97.0376C77.1775 98.1107 75.5069 98.6939 73.1428 98.7803ZM73.1428 96.2748C73.9264 96.2748 74.6025 96.1438 75.1687 95.8814C75.7312 95.6191 76.1315 95.267 76.3696 94.8221C76.608 94.3801 76.7253 93.7312 76.7253 92.8755C76.7253 90.7395 75.5313 89.6696 73.1428 89.6696V96.2748ZM70.2024 96.2748V89.6696C68.9358 89.6696 68.0245 89.9491 67.462 90.5116C66.8995 91.0741 66.62 91.9229 66.62 93.0584C66.62 95.2017 67.814 96.2748 70.2024 96.2748ZM82.0574 85.6937H84.853V95.5639L90.8583 85.6937H93.8401V100.52H91.0448V90.8084L85.0395 100.52H82.0574V85.6937ZM106.386 95.0533L109.285 95.9435C108.839 97.5758 108.098 98.7872 107.062 99.5808C106.027 100.371 104.715 100.768 103.124 100.768C101.153 100.768 99.5347 100.095 98.2648 98.7494C96.9982 97.4034 96.3631 95.5639 96.3631 93.2275C96.3631 90.7602 97.0015 88.8412 98.275 87.4745C99.5485 86.1082 101.226 85.4248 103.304 85.4248C105.119 85.4248 106.593 85.963 107.725 87.0364C108.401 87.6715 108.905 88.5824 109.243 89.7731L106.282 90.4771C106.106 89.711 105.74 89.1035 105.184 88.6583C104.625 88.2134 103.949 87.9923 103.155 87.9923C102.054 87.9923 101.16 88.3857 100.477 89.1761C99.7902 89.9629 99.4483 91.2399 99.4483 93.0065C99.4483 94.8773 99.7866 96.2128 100.46 97.0064C101.136 97.8037 102.013 98.2007 103.093 98.2007C103.89 98.2007 104.577 97.9485 105.15 97.4412C105.723 96.9338 106.137 96.1402 106.386 95.0533Z" fill="#2B2A29"/>
</svg>
