<svg width="193" height="144" viewBox="0 0 193 144" fill="none" xmlns="http://www.w3.org/2000/svg">
<path fill-rule="evenodd" clip-rule="evenodd" d="M116.913 27.8259C117.934 29.2567 118.894 30.7329 119.796 32.2475L192 143L57.3275 128.302L57.3309 128.296C25.6097 124.563 1 97.5927 1 64.8704C1 29.5957 29.5976 1 64.8747 1C86.1479 1 104.991 11.3998 116.599 27.3904L116.615 27.3694L116.913 27.8259Z" fill="#F5F5F5" stroke="#2B2A29" stroke-miterlimit="22.9256"/>
<path fill-rule="evenodd" clip-rule="evenodd" d="M36.3686 17.4704C38.5799 16.0954 40.1216 15.162 43.2892 14.7773H85.698C88.6693 14.7969 91.0907 15.6664 93.0618 17.2316L120.334 44.6389C121.997 46.6661 121.24 51.6229 117.744 51.8657L72.4368 51.9339C71.6754 52.0025 70.8686 51.6157 70.0161 50.7748L55.3913 36.1848C53.7923 33.9374 54.6724 29.183 58.5618 28.8219L72.505 28.7878C74.8459 28.7991 74.8343 24.0719 72.4709 24.1177L45.1982 24.0494C43.3411 24.1227 41.9638 24.9756 40.8344 26.2312L24.3685 42.7642L42.0618 42.7297L42.1239 32.4346C42.681 27.5576 50.6443 27.5942 51.3603 32.4212L51.3668 48.15C51.1723 50.1191 49.7337 51.7942 47.5162 51.8657H11.9253C9.064 51.5242 7.55931 47.5824 9.33437 44.5025L36.3686 17.4704ZM83.6537 25.0728C84.0312 23.6978 84.8557 23.2318 86.3128 24.0501L105.199 42.7304H75.3355C73.1826 42.6666 73.1815 38.1873 75.4037 37.9583H79.7501C81.9291 37.7093 83.3844 36.6163 83.6537 34.1402V25.0728Z" fill="#E31E24" stroke="#E31E24" stroke-width="0.755906" stroke-miterlimit="22.9256"/>
<path d="M12.4996 62.5873L15.5323 62.3974C15.598 62.8899 15.7316 63.2652 15.9334 63.5232C16.2617 63.9407 16.7308 64.1494 17.3406 64.1494C17.7957 64.1494 18.1451 64.0439 18.3891 63.8328C18.6377 63.617 18.762 63.3684 18.762 63.0869C18.762 62.8195 18.6447 62.5803 18.4102 62.3692C18.1756 62.1581 17.6315 61.9588 16.7777 61.7711C15.3798 61.4568 14.383 61.0393 13.7872 60.5186C13.1868 59.9979 12.8866 59.3342 12.8866 58.5273C12.8866 57.9972 13.039 57.4977 13.344 57.0286C13.6536 56.5548 14.1156 56.1842 14.7301 55.9168C15.3493 55.6447 16.1961 55.5087 17.2703 55.5087C18.5884 55.5087 19.5923 55.755 20.2819 56.2475C20.9761 56.7354 21.3889 57.5141 21.5203 58.5836L18.5157 58.7595C18.436 58.2951 18.2671 57.9574 18.0091 57.7463C17.7558 57.5352 17.404 57.4296 16.9536 57.4296C16.5831 57.4296 16.3039 57.5094 16.1163 57.6689C15.9287 57.8237 15.8348 58.0137 15.8348 58.2388C15.8348 58.403 15.9122 58.5508 16.067 58.6821C16.2172 58.8182 16.5737 58.9448 17.1366 59.0621C18.5298 59.3623 19.5266 59.6672 20.1271 59.9768C20.7322 60.2817 21.1708 60.6617 21.4429 61.1167C21.7196 61.5717 21.858 62.0807 21.858 62.6436C21.858 63.3051 21.6751 63.9149 21.3092 64.4731C20.9433 65.0313 20.432 65.4559 19.7752 65.7467C19.1185 66.0328 18.2906 66.1759 17.2914 66.1759C15.537 66.1759 14.322 65.8382 13.6465 65.1627C12.971 64.4872 12.5887 63.6287 12.4996 62.5873ZM27.2409 55.6846H30.7802L32.863 59.1676L34.9458 55.6846H38.464L34.4532 61.6796V66H31.2587V61.6796L27.2409 55.6846ZM43.7554 62.5873L46.788 62.3974C46.8537 62.8899 46.9874 63.2652 47.1891 63.5232C47.5175 63.9407 47.9866 64.1494 48.5964 64.1494C49.0514 64.1494 49.4009 64.0439 49.6448 63.8328C49.8935 63.617 50.0178 63.3684 50.0178 63.0869C50.0178 62.8195 49.9005 62.5803 49.6659 62.3692C49.4314 62.1581 48.8872 61.9588 48.0335 61.7711C46.6356 61.4568 45.6388 61.0393 45.043 60.5186C44.4426 59.9979 44.1424 59.3342 44.1424 58.5273C44.1424 57.9972 44.2948 57.4977 44.5997 57.0286C44.9093 56.5548 45.3714 56.1842 45.9859 55.9168C46.6051 55.6447 47.4518 55.5087 48.526 55.5087C49.8442 55.5087 50.8481 55.755 51.5376 56.2475C52.2319 56.7354 52.6447 57.5141 52.776 58.5836L49.7715 58.7595C49.6917 58.2951 49.5229 57.9574 49.2649 57.7463C49.0116 57.5352 48.6597 57.4296 48.2094 57.4296C47.8388 57.4296 47.5597 57.5094 47.3721 57.6689C47.1844 57.8237 47.0906 58.0137 47.0906 58.2388C47.0906 58.403 47.168 58.5508 47.3228 58.6821C47.4729 58.8182 47.8294 58.9448 48.3924 59.0621C49.7856 59.3623 50.7824 59.6672 51.3828 59.9768C51.988 60.2817 52.4266 60.6617 52.6986 61.1167C52.9754 61.5717 53.1138 62.0807 53.1138 62.6436C53.1138 63.3051 52.9308 63.9149 52.5649 64.4731C52.1991 65.0313 51.6877 65.4559 51.031 65.7467C50.3743 66.0328 49.5463 66.1759 48.5472 66.1759C46.7927 66.1759 45.5778 65.8382 44.9023 65.1627C44.2268 64.4872 43.8445 63.6287 43.7554 62.5873ZM58.8133 55.6846H68.5024V58.2318H65.2516V66H62.0641V58.2318H58.8133V55.6846ZM74.7578 55.6846H83.3V57.887H77.9523V59.5265H82.913V61.6304H77.9523V63.6639H83.4548V66H74.7578V55.6846ZM89.9565 55.6846H94.1502L95.7685 61.9611L97.3799 55.6846H101.56V66H98.956V58.1333L96.9366 66H94.5794L92.567 58.1333V66H89.9565V55.6846ZM107.857 62.5873L110.89 62.3974C110.955 62.8899 111.089 63.2652 111.291 63.5232C111.619 63.9407 112.088 64.1494 112.698 64.1494C113.153 64.1494 113.503 64.0439 113.747 63.8328C113.995 63.617 114.12 63.3684 114.12 63.0869C114.12 62.8195 114.002 62.5803 113.768 62.3692C113.533 62.1581 112.989 61.9588 112.135 61.7711C110.737 61.4568 109.741 61.0393 109.145 60.5186C108.544 59.9979 108.244 59.3342 108.244 58.5273C108.244 57.9972 108.397 57.4977 108.701 57.0286C109.011 56.5548 109.473 56.1842 110.088 55.9168C110.707 55.6447 111.554 55.5087 112.628 55.5087C113.946 55.5087 114.95 55.755 115.639 56.2475C116.334 56.7354 116.746 57.5141 116.878 58.5836L113.873 58.7595C113.794 58.2951 113.625 57.9574 113.367 57.7463C113.113 57.5352 112.761 57.4296 112.311 57.4296C111.941 57.4296 111.661 57.5094 111.474 57.6689C111.286 57.8237 111.192 58.0137 111.192 58.2388C111.192 58.403 111.27 58.5508 111.425 58.6821C111.575 58.8182 111.931 58.9448 112.494 59.0621C113.887 59.3623 114.884 59.6672 115.485 59.9768C116.09 60.2817 116.528 60.6617 116.8 61.1167C117.077 61.5717 117.216 62.0807 117.216 62.6436C117.216 63.3051 117.033 63.9149 116.667 64.4731C116.301 65.0313 115.79 65.4559 115.133 65.7467C114.476 66.0328 113.648 66.1759 112.649 66.1759C110.895 66.1759 109.68 65.8382 109.004 65.1627C108.329 64.4872 107.946 63.6287 107.857 62.5873Z" fill="#2B2A29"/>
<path fill-rule="evenodd" clip-rule="evenodd" d="M109.798 72.593V77.4642H122.832C123.087 77.4642 123.294 77.6697 123.293 77.9524V79.3673C123.293 79.622 123.087 79.8285 122.832 79.8285L107.895 79.8296C107.64 79.8296 107.433 79.6224 107.433 79.3673V70.6896C107.433 70.4345 107.64 70.2276 107.895 70.2276H122.832C123.087 70.2276 123.294 70.4327 123.293 70.7158V72.1307C123.293 72.3851 123.086 72.5923 122.832 72.5923L109.798 72.593ZM106.057 69.8201L104.64 69.8208C104.385 69.8208 104.178 69.6136 104.178 69.3585C104.178 69.3447 104.179 69.3338 104.179 69.3259V67.9174C104.179 67.663 104.386 67.4569 104.64 67.4565L106.057 67.4551C106.312 67.4547 106.519 67.6605 106.518 67.9435V69.3585C106.518 69.6129 106.311 69.8201 106.057 69.8201ZM106.466 70.6123V79.3673C106.466 79.6228 106.259 79.8296 106.004 79.8296H104.64C104.385 79.8296 104.178 79.6224 104.178 79.3673V70.6123C104.178 70.3572 104.385 70.15 104.64 70.15H106.004C106.259 70.15 106.466 70.3568 106.466 70.6123ZM89.6968 72.593V77.4642H102.698C102.953 77.4642 103.161 77.6715 103.161 77.9266C103.161 77.9389 103.16 77.948 103.159 77.9538V79.3673C103.159 79.622 102.953 79.8285 102.698 79.8285L87.7773 79.8296C87.5221 79.8296 87.3153 79.6224 87.3153 79.3673V67.9174C87.3153 67.6623 87.5221 67.4551 87.7773 67.4551H89.2344C89.4896 67.4551 89.6968 67.6623 89.6968 67.9174V70.2276H102.698C102.953 70.2276 103.161 70.4345 103.161 70.6896C103.161 70.7019 103.16 70.7114 103.159 70.7172V72.1307C103.159 72.3851 102.953 72.5923 102.698 72.5923L89.6968 72.593ZM72.938 75.96V77.4657H85.9235C86.1782 77.4657 86.3848 77.6718 86.3848 77.9266V79.3673C86.3848 79.622 86.1782 79.8285 85.9235 79.8285L70.9946 79.8296C70.7394 79.8296 70.5326 79.6224 70.5326 79.3673V70.7354C70.5326 70.4802 70.7394 70.273 70.9946 70.273H85.9235C86.179 70.273 86.3858 70.4799 86.3858 70.7354V75.4991C86.3858 75.7542 86.1786 75.9615 85.9235 75.9615C85.9107 75.9615 85.9017 75.9607 85.8959 75.96H72.938ZM67.2067 72.5636H56.1139V79.3673C56.1139 79.6217 55.9074 79.8285 55.653 79.8285H54.2119C53.9574 79.8285 53.7509 79.6217 53.7509 79.3673L53.7495 70.6123C53.7495 70.3572 53.9567 70.15 54.2119 70.15H69.1168C69.3719 70.15 69.5792 70.3572 69.5792 70.6123V79.3673C69.5792 79.6224 69.3719 79.8296 69.1168 79.8296H67.6676C67.4125 79.8296 67.2056 79.6224 67.2056 79.3673C67.2056 79.3538 67.206 79.343 67.2067 79.335V72.5636ZM36.5675 73.5558V72.593H23.5738C23.3186 72.593 23.1117 72.3858 23.1117 72.1307C23.1117 72.1169 23.1121 72.106 23.1128 72.098V70.6896C23.1128 70.4352 23.3193 70.2287 23.5738 70.2287L38.511 70.2276C38.7661 70.2276 38.973 70.4345 38.973 70.6896V79.3673C38.973 79.6224 38.7661 79.8296 38.511 79.8296H23.5738C23.3186 79.8296 23.1117 79.6224 23.1117 79.3673V74.0181C23.1117 73.763 23.3186 73.5558 23.5738 73.5558H36.5675ZM50.7289 80.2205V79.7977H40.2951C40.04 79.7977 39.8328 79.5905 39.8328 79.3353V70.6283C39.8328 70.3732 40.04 70.1659 40.2951 70.1659C40.3104 70.1659 40.3213 70.1663 40.3285 70.1678L52.3421 70.1591C52.5968 70.1591 52.803 70.3656 52.803 70.6203L52.8044 82.1558C52.8044 82.4109 52.5972 82.6181 52.3421 82.6181H40.2951C40.04 82.6181 39.8328 82.4109 39.8328 82.1558V80.6828C39.8328 80.4277 40.04 80.2205 40.2951 80.2205H50.7289ZM19.7605 72.5916H15.5092V79.3673C15.5092 79.6228 15.3023 79.8296 15.0468 79.8296H13.598C13.3425 79.8296 13.1357 79.6228 13.1357 79.3673V72.5916H8.75046V79.3673C8.75046 79.6228 8.54358 79.8296 8.28809 79.8296H6.91659C6.66146 79.8296 6.45459 79.6224 6.45459 79.3673V70.6896C6.45459 70.4345 6.66146 70.2276 6.91659 70.2276H21.672C21.9272 70.2276 22.1344 70.4345 22.1344 70.6896V79.3673C22.1344 79.6224 21.9272 79.8296 21.672 79.8296H20.2229C19.9677 79.8296 19.7605 79.6224 19.7605 79.3673V72.5916ZM72.938 72.6384V73.5957H84.0123V72.6384H72.938ZM36.5675 77.4642V75.9455H25.4773V77.4642H36.5675ZM50.7274 77.392V72.5716H41.9098V77.392H50.7274Z" fill="#898778"/>
<path d="M122.832 72.4472H109.654V77.6088H122.832C123.007 77.6088 123.149 77.751 123.149 77.926C123.149 77.9343 123.149 77.9419 123.148 77.9499V79.3666C123.148 79.5412 123.007 79.6827 122.832 79.6827V79.6838H107.895C107.72 79.6838 107.578 79.5419 107.578 79.3666V79.3583V70.689C107.578 70.5141 107.72 70.3722 107.895 70.3722H107.903H122.832C123.007 70.3722 123.149 70.5141 123.149 70.689C123.149 70.6973 123.149 70.7053 123.148 70.7133V72.1301C123.148 72.3043 123.007 72.4458 122.832 72.4458V72.4472ZM106.057 69.6751H104.641C104.466 69.6751 104.323 69.5328 104.323 69.3579C104.323 69.3477 104.324 69.3375 104.325 69.3277V67.9168C104.325 67.7426 104.466 67.6011 104.641 67.6011V67.5996H106.057C106.233 67.5996 106.375 67.7419 106.375 67.9168C106.375 67.9251 106.374 67.9331 106.374 67.9411V69.3579C106.374 69.5321 106.232 69.6736 106.057 69.6736V69.6751ZM106.321 70.6117V79.3666C106.321 79.5419 106.179 79.6838 106.004 79.6838H104.641C104.466 79.6838 104.323 79.5419 104.323 79.3666V79.3583V70.6117C104.323 70.4364 104.466 70.2945 104.641 70.2945H104.649H106.004C106.179 70.2945 106.321 70.4364 106.321 70.6117ZM102.699 72.4472H89.552V77.6088H102.699C102.874 77.6088 103.016 77.751 103.016 77.926C103.016 77.9343 103.015 77.9419 103.015 77.9499V79.3666C103.015 79.5412 102.873 79.6827 102.699 79.6827V79.6838H87.7776C87.6027 79.6838 87.4608 79.5419 87.4608 79.3666V79.3583V67.9168C87.4608 67.7419 87.6027 67.5996 87.7776 67.5996H87.7856H89.2348C89.4097 67.5996 89.552 67.7419 89.552 67.9168V70.3722H102.699C102.874 70.3722 103.016 70.5141 103.016 70.689C103.016 70.6973 103.015 70.7053 103.015 70.7133V72.1301C103.015 72.3043 102.873 72.4458 102.699 72.4458V72.4472ZM72.7932 72.4926V73.7402H84.1578V72.4926H72.7932ZM70.6781 79.3666V79.3583V70.7347C70.6781 70.5594 70.82 70.4175 70.9949 70.4175H71.0029H85.9238C86.0991 70.4175 86.241 70.5594 86.241 70.7347V75.4985C86.241 75.6734 86.0991 75.8157 85.9238 75.8157C85.9158 75.8157 85.9075 75.815 85.8995 75.8142H72.7932V77.6102H85.9238C86.0984 77.6102 86.2399 77.7514 86.2399 77.926V79.3666C86.2399 79.5412 86.0984 79.6827 85.9238 79.6827V79.6838H70.9949C70.82 79.6838 70.6781 79.5419 70.6781 79.3666ZM54.2122 70.2945H54.2202H69.1171C69.2921 70.2945 69.4343 70.4364 69.4343 70.6117V79.3666C69.4343 79.5419 69.2921 79.6838 69.1171 79.6838H67.668C67.493 79.6838 67.3511 79.5419 67.3511 79.3666C67.3511 79.3568 67.3515 79.3467 67.3522 79.3369V72.4179H55.9691V79.3666C55.9691 79.5412 55.8276 79.6827 55.6534 79.6827H54.2122C54.038 79.6827 53.8964 79.5412 53.8964 79.3666H53.895V70.6117C53.895 70.4364 54.0373 70.2945 54.2122 70.2945ZM38.8282 70.689V79.3666C38.8282 79.5419 38.6863 79.6838 38.5113 79.6838H23.5741C23.3992 79.6838 23.2573 79.5419 23.2573 79.3666V79.3583V74.0175C23.2573 73.8422 23.3992 73.7003 23.5741 73.7003H23.5821H36.713V72.4472H23.5741C23.3992 72.4472 23.2573 72.305 23.2573 72.1301C23.2573 72.1199 23.2576 72.1098 23.2583 72.1V70.689C23.2583 70.5148 23.3999 70.3733 23.5741 70.3733V70.3722H38.5113C38.6863 70.3722 38.8282 70.5141 38.8282 70.689ZM36.713 77.6088V75.7997H25.3325V77.6088H36.713ZM52.3424 82.4723H40.2955C40.1205 82.4723 39.9783 82.3301 39.9783 82.1552V82.1468V80.6822C39.9783 80.5072 40.1205 80.365 40.2955 80.365H40.3035H50.8744V79.6519H40.2955C40.1205 79.6519 39.9783 79.5096 39.9783 79.3347V79.3264V70.6277C39.9783 70.4524 40.1205 70.3105 40.2955 70.3105C40.3056 70.3105 40.3151 70.3108 40.3249 70.3119L52.3424 70.3036C52.517 70.3036 52.6581 70.4451 52.6581 70.6197H52.6596V82.1552C52.6596 82.3301 52.5173 82.4723 52.3424 82.4723ZM50.8729 77.5365V72.4258H41.765V77.5365H50.8729ZM21.9896 70.689V79.3666C21.9896 79.5419 21.8473 79.6838 21.6724 79.6838H20.2232C20.0483 79.6838 19.906 79.5419 19.906 79.3666V79.3583V72.4458H15.3644V79.3666C15.3644 79.5419 15.2225 79.6838 15.0472 79.6838H13.5984C13.4231 79.6838 13.2812 79.5419 13.2812 79.3666V79.3583V72.4458H8.60563V79.3666C8.60563 79.5419 8.46372 79.6838 8.28842 79.6838H6.91693C6.742 79.6838 6.6001 79.5419 6.6001 79.3666V79.3583V70.689C6.6001 70.5141 6.742 70.3722 6.91693 70.3722H6.92492H21.6724C21.8473 70.3722 21.9896 70.5141 21.9896 70.689Z" fill="#E31E24"/>
<path d="M27.5723 97.8818H36.5503V109.179H34.2624V99.791H29.8601V109.179H27.5723V97.8818ZM38.8832 109.179V97.8818H42.5411C43.9271 97.8818 44.829 97.9373 45.25 98.0502C45.8967 98.2211 46.4385 98.5894 46.8751 99.1574C47.3117 99.7253 47.5298 100.459 47.5298 101.358C47.5298 102.053 47.4035 102.634 47.1539 103.107C46.9013 103.58 46.5833 103.951 46.1965 104.222C45.8099 104.49 45.4154 104.669 45.0159 104.756C44.4715 104.864 43.685 104.919 42.6543 104.919H41.171V109.179H38.8832ZM41.171 99.791V103.01H42.4148C43.3116 103.01 43.9086 102.949 44.2113 102.831C44.5136 102.713 44.7502 102.528 44.9211 102.274C45.0921 102.021 45.1788 101.729 45.1788 101.392C45.1788 100.979 45.058 100.641 44.8184 100.372C44.5767 100.104 44.274 99.9358 43.9035 99.8672C43.6324 99.8175 43.088 99.791 42.2678 99.791H41.171ZM48.7268 103.599C48.7268 102.447 48.9002 101.479 49.2447 100.696C49.4998 100.12 49.8522 99.6016 50.2964 99.1443C50.741 98.6867 51.2277 98.3474 51.7561 98.1238C52.4609 97.8266 53.2735 97.6768 54.1939 97.6768C55.8611 97.6768 57.192 98.195 58.194 99.2285C59.1932 100.264 59.6929 101.703 59.6929 103.546C59.6929 105.374 59.1957 106.804 58.2046 107.835C57.213 108.869 55.8851 109.384 54.2254 109.384C52.5451 109.384 51.2066 108.871 50.2151 107.843C49.2236 106.817 48.7268 105.403 48.7268 103.599ZM51.0778 103.522C51.0778 104.803 51.3747 105.773 51.9666 106.436C52.5582 107.096 53.3105 107.427 54.2204 107.427C55.1327 107.427 55.8796 107.099 56.4661 106.444C57.0501 105.786 57.3419 104.803 57.3419 103.491C57.3419 102.194 57.0577 101.227 56.4872 100.59C55.9192 99.9514 55.1643 99.6331 54.2204 99.6331C53.2789 99.6331 52.5186 99.9568 51.943 100.601C51.367 101.248 51.0778 102.221 51.0778 103.522ZM61.505 97.8818H63.635V105.403L68.2107 97.8818H70.483V109.179H68.353V101.779L63.7769 109.179H61.505V97.8818ZM74.4251 100.958L72.2004 100.438C72.6791 98.5971 74.0386 97.6768 76.2793 97.6768C77.6047 97.6768 78.6067 97.9689 79.2825 98.5524C79.9582 99.1363 80.295 99.8226 80.295 100.611C80.295 101.15 80.1397 101.637 79.8323 102.074C79.5245 102.507 79.0615 102.889 78.4463 103.22C79.1932 103.478 79.7557 103.841 80.1292 104.311C80.5026 104.785 80.6895 105.363 80.6895 106.055C80.6895 107.049 80.3266 107.851 79.5982 108.464C78.8724 109.076 77.7836 109.384 76.3344 109.384C75.1538 109.384 74.22 109.187 73.5363 108.792C72.8525 108.398 72.3397 107.659 71.9953 106.575L74.0781 105.897C74.2937 106.578 74.583 107.02 74.9408 107.22C75.2983 107.422 75.7403 107.522 76.2662 107.522C76.9866 107.522 77.5125 107.367 77.8438 107.054C78.1726 106.741 78.3385 106.383 78.3385 105.978C78.3385 105.516 78.1516 105.14 77.7781 104.856C77.4076 104.572 76.8447 104.43 76.0953 104.43H75.577V102.726H75.8376C76.5344 102.726 77.0683 102.568 77.4363 102.255C77.8072 101.942 77.9912 101.524 77.9912 101.006C77.9912 100.593 77.8413 100.246 77.5415 99.9619C77.2417 99.6807 76.8131 99.5388 76.2557 99.5388C75.3008 99.5388 74.6908 100.012 74.4251 100.958ZM82.7012 97.8818H87.2193C88.1161 97.8818 88.7813 97.9188 89.2204 97.9925C89.6621 98.0687 90.0541 98.2236 90.4014 98.4577C90.7483 98.6947 91.0376 99.0075 91.2691 99.3994C91.5003 99.791 91.6161 100.233 91.6161 100.719C91.6161 101.245 91.4742 101.732 91.19 102.171C90.9062 102.613 90.5197 102.941 90.033 103.162C90.7193 103.365 91.2456 103.707 91.6161 104.19C91.9845 104.674 92.1685 105.242 92.1685 105.897C92.1685 106.412 92.0502 106.912 91.811 107.398C91.5715 107.885 91.2456 108.274 90.83 108.566C90.417 108.856 89.9067 109.034 89.2992 109.103C88.9206 109.142 88.0028 109.168 86.5486 109.179H82.7012V97.8818ZM84.9891 99.7594V102.363H86.4829C87.3692 102.363 87.9212 102.35 88.1371 102.323C88.5262 102.279 88.8339 102.145 89.0575 101.921C89.2811 101.698 89.3914 101.406 89.3914 101.043C89.3914 100.693 89.2941 100.412 89.1021 100.193C88.9101 99.975 88.6234 99.8436 88.2449 99.799C88.0188 99.7725 87.3691 99.7594 86.2989 99.7594H84.9891ZM84.9891 104.24V107.27H87.1035C87.9241 107.27 88.4474 107.246 88.6681 107.201C89.0074 107.138 89.2836 106.988 89.4966 106.749C89.7097 106.507 89.8174 106.189 89.8174 105.786C89.8174 105.445 89.7358 105.158 89.5703 104.921C89.4074 104.685 89.1678 104.511 88.8575 104.403C88.5472 104.296 87.8714 104.24 86.8327 104.24H84.9891ZM93.2311 103.599C93.2311 102.447 93.4046 101.479 93.749 100.696C94.0041 100.12 94.3566 99.6016 94.8008 99.1443C95.2454 98.6867 95.732 98.3474 96.2605 98.1238C96.9653 97.8266 97.7778 97.6768 98.6982 97.6768C100.365 97.6768 101.696 98.195 102.698 99.2285C103.697 100.264 104.197 101.703 104.197 103.546C104.197 105.374 103.7 106.804 102.709 107.835C101.717 108.869 100.389 109.384 98.7298 109.384C97.0495 109.384 95.711 108.871 94.7195 107.843C93.728 106.817 93.2311 105.403 93.2311 103.599ZM95.5821 103.522C95.5821 104.803 95.879 105.773 96.4709 106.436C97.0625 107.096 97.8149 107.427 98.7247 107.427C99.6371 107.427 100.384 107.099 100.97 106.444C101.554 105.786 101.846 104.803 101.846 103.491C101.846 102.194 101.562 101.227 100.992 100.59C100.424 99.9514 99.6687 99.6331 98.7247 99.6331C97.7833 99.6331 97.023 99.9568 96.4474 100.601C95.8714 101.248 95.5821 102.221 95.5821 103.522ZM106.685 97.8818H114.48V107.27H115.474V111.64H113.565V109.179H106.48V111.64H104.571V107.27H105.534C106.001 106.305 106.312 105.184 106.462 103.912C106.612 102.636 106.685 101.025 106.685 99.0757V97.8818ZM108.863 99.791C108.863 103.21 108.547 105.703 107.916 107.27H112.192V99.791H108.863ZM124.236 105.014L126.446 105.692C126.106 106.936 125.541 107.859 124.752 108.464C123.963 109.066 122.964 109.368 121.752 109.368C120.25 109.368 119.017 108.856 118.049 107.83C117.084 106.804 116.599 105.403 116.599 103.623C116.599 101.742 117.086 100.28 118.057 99.2387C119.027 98.1975 120.305 97.6768 121.888 97.6768C123.271 97.6768 124.394 98.0872 125.257 98.9048C125.772 99.3889 126.156 100.083 126.414 100.99L124.158 101.527C124.023 100.943 123.745 100.48 123.322 100.141C122.895 99.8015 122.38 99.6331 121.775 99.6331C120.936 99.6331 120.255 99.9329 119.734 100.535C119.211 101.135 118.951 102.108 118.951 103.454C118.951 104.88 119.209 105.897 119.721 106.502C120.237 107.109 120.904 107.412 121.728 107.412C122.335 107.412 122.858 107.22 123.295 106.833C123.732 106.447 124.047 105.842 124.236 105.014ZM130.554 109.179V99.791H127.208V97.8818H136.171V99.791H132.841V109.179H130.554ZM137.651 97.8818H142.169C143.066 97.8818 143.731 97.9188 144.17 97.9925C144.612 98.0687 145.004 98.2236 145.351 98.4577C145.698 98.6947 145.988 99.0075 146.219 99.3994C146.45 99.791 146.566 100.233 146.566 100.719C146.566 101.245 146.424 101.732 146.14 102.171C145.856 102.613 145.47 102.941 144.983 103.162C145.669 103.365 146.196 103.707 146.566 104.19C146.935 104.674 147.119 105.242 147.119 105.897C147.119 106.412 147 106.912 146.761 107.398C146.522 107.885 146.196 108.274 145.78 108.566C145.367 108.856 144.857 109.034 144.249 109.103C143.871 109.142 142.953 109.168 141.499 109.179H137.651V97.8818ZM139.939 99.7594V102.363H141.433C142.319 102.363 142.871 102.35 143.087 102.323C143.476 102.279 143.784 102.145 144.008 101.921C144.231 101.698 144.341 101.406 144.341 101.043C144.341 100.693 144.244 100.412 144.052 100.193C143.86 99.975 143.573 99.8436 143.195 99.799C142.969 99.7725 142.319 99.7594 141.249 99.7594H139.939ZM139.939 104.24V107.27H142.054C142.874 107.27 143.397 107.246 143.618 107.201C143.957 107.138 144.234 106.988 144.447 106.749C144.66 106.507 144.767 106.189 144.767 105.786C144.767 105.445 144.686 105.158 144.52 104.921C144.357 104.685 144.118 104.511 143.808 104.403C143.497 104.296 142.822 104.24 141.783 104.24H139.939ZM148.181 103.599C148.181 102.447 148.355 101.479 148.699 100.696C148.954 100.12 149.307 99.6016 149.751 99.1443C150.195 98.6867 150.682 98.3474 151.21 98.1238C151.915 97.8266 152.728 97.6768 153.648 97.6768C155.316 97.6768 156.646 98.195 157.648 99.2285C158.648 100.264 159.147 101.703 159.147 103.546C159.147 105.374 158.65 106.804 157.659 107.835C156.667 108.869 155.339 109.384 153.68 109.384C151.999 109.384 150.661 108.871 149.67 107.843C148.678 106.817 148.181 105.403 148.181 103.599ZM150.532 103.522C150.532 104.803 150.829 105.773 151.421 106.436C152.013 107.096 152.765 107.427 153.675 107.427C154.587 107.427 155.334 107.099 155.921 106.444C156.504 105.786 156.796 104.803 156.796 103.491C156.796 102.194 156.512 101.227 155.942 100.59C155.374 99.9514 154.619 99.6331 153.675 99.6331C152.733 99.6331 151.973 99.9568 151.397 100.601C150.821 101.248 150.532 102.221 150.532 103.522Z" fill="#2B2A29"/>
</svg>
