<svg width="80" height="80" viewBox="0 0 80 80" fill="none" xmlns="http://www.w3.org/2000/svg">
<path d="M67.5 30C67.5043 25.3652 66.3372 20.8046 64.107 16.7416C61.8768 12.6787 58.6559 9.24538 54.7435 6.76055C50.8312 4.27573 46.3542 2.82003 41.7286 2.52869C37.103 2.23736 32.4788 3.11983 28.2856 5.09415C24.0924 7.06846 20.4662 10.0706 17.7438 13.8215C15.0215 17.5725 13.2913 21.9507 12.7141 26.5494C12.1369 31.1481 12.7313 35.8181 14.4422 40.1255C16.153 44.4329 18.9248 48.2381 22.5 51.1875V75C22.4975 75.4266 22.6055 75.8466 22.8136 76.2191C23.0217 76.5915 23.3228 76.9036 23.6875 77.125C24.0492 77.3524 24.4632 77.4833 24.89 77.5052C25.3167 77.5271 25.7419 77.4392 26.125 77.25L40 70.2813L53.875 77.25C54.2298 77.4068 54.6122 77.4918 55 77.5C55.663 77.5 56.2989 77.2366 56.7678 76.7678C57.2366 76.2989 57.5 75.6631 57.5 75V51.1875C60.6275 48.6131 63.1462 45.3781 64.8752 41.7148C66.6042 38.0515 67.5006 34.0508 67.5 30ZM17.5 30C17.5 25.5499 18.8196 21.1998 21.2919 17.4997C23.7643 13.7996 27.2783 10.9157 31.3896 9.21271C35.501 7.50974 40.025 7.06417 44.3895 7.93234C48.7541 8.8005 52.7632 10.9434 55.9099 14.0901C59.0566 17.2368 61.1995 21.2459 62.0677 25.6105C62.9358 29.975 62.4903 34.499 60.7873 38.6104C59.0843 42.7217 56.2004 46.2357 52.5003 48.7081C48.8002 51.1804 44.4501 52.5 40 52.5C34.0352 52.4917 28.317 50.1186 24.0992 45.9008C19.8814 41.683 17.5083 35.9648 17.5 30ZM52.5 70.9688L41.125 65.25C40.774 65.0811 40.3895 64.9933 40 64.9933C39.6105 64.9933 39.226 65.0811 38.875 65.25L27.5 70.9688V54.5C31.3714 56.4728 35.6549 57.5013 40 57.5013C44.3451 57.5013 48.6286 56.4728 52.5 54.5V70.9688ZM40 47.5C43.4612 47.5 46.8446 46.4737 49.7225 44.5507C52.6003 42.6278 54.8434 39.8947 56.1679 36.697C57.4924 33.4993 57.839 29.9806 57.1637 26.5859C56.4885 23.1913 54.8218 20.0731 52.3744 17.6256C49.9269 15.1782 46.8088 13.5115 43.4141 12.8363C40.0194 12.161 36.5007 12.5076 33.303 13.8321C30.1053 15.1566 27.3722 17.3997 25.4493 20.2775C23.5264 23.1554 22.5 26.5388 22.5 30C22.5 34.6413 24.3437 39.0925 27.6256 42.3744C30.9075 45.6563 35.3587 47.5 40 47.5ZM40 17.5C42.4723 17.5 44.889 18.2331 46.9446 19.6066C49.0002 20.9802 50.6024 22.9324 51.5485 25.2165C52.4946 27.5005 52.7421 30.0139 52.2598 32.4386C51.7775 34.8634 50.587 37.0907 48.8388 38.8388C47.0907 40.587 44.8634 41.7775 42.4386 42.2598C40.0139 42.7421 37.5005 42.4946 35.2165 41.5485C32.9324 40.6024 30.9801 39.0002 29.6066 36.9446C28.2331 34.889 27.5 32.4723 27.5 30C27.5082 26.6873 28.8279 23.5127 31.1703 21.1703C33.5127 18.8279 36.6873 17.5083 40 17.5Z" fill="#1D8FBD"/>
</svg>
