<svg xmlns="http://www.w3.org/2000/svg">
  <symbol id="map" viewBox="0 0 24 24" fill="none">
    <path d="M12 18.5L9 17M9 17L3 20V7L9 4M9 17V4M9 4L15 7M15 7L21 4V11.5M15 7V12.5M19 18V18.01M21.121 20.121C21.5406 19.7015 21.8265 19.1669 21.9423 18.585C22.0581 18.003 21.9988 17.3997 21.7717 16.8515C21.5447 16.3033 21.1602 15.8347 20.6668 15.505C20.1734 15.1753 19.5934 14.9994 19 14.9994C18.4066 14.9994 17.8266 15.1753 17.3332 15.505C16.8398 15.8347 16.4553 16.3033 16.2283 16.8515C16.0012 17.3997 15.9419 18.003 16.0577 18.585C16.1735 19.1669 16.4594 19.7015 16.879 20.121C17.297 20.5397 18.004 21.166 19 22C20.0513 21.11 20.7583 20.4837 21.121 20.121Z" stroke="var(--color-black)" stroke-width="2" stroke-linecap="round" stroke-linejoin="round"/>
  </symbol>
  <symbol id="partners" viewBox="0 0 24 24" fill="none">
    <path d="M11.861 2.39C12.3449 2.06756 12.912 1.89269 13.4935 1.88665C14.0749 1.88062 14.6455 2.04368 15.136 2.356L19.29 5H21C21.2652 5 21.5196 5.10536 21.7071 5.29289C21.8946 5.48043 22 5.73478 22 6V15C22 15.2652 21.8946 15.5196 21.7071 15.7071C21.5196 15.8946 21.2652 16 21 16H19.48C19.5121 16.487 19.4091 16.9733 19.1823 17.4054C18.9556 17.8376 18.6139 18.1987 18.195 18.449L13.102 21.505C12.7891 21.6926 12.4308 21.791 12.0659 21.7896C11.701 21.7882 11.3435 21.687 11.032 21.497C10.6812 21.807 10.2327 21.9841 9.76472 21.9974C9.29675 22.0108 8.83892 21.8595 8.471 21.57L3.331 17.531C2.97186 17.249 2.71999 16.8526 2.61721 16.4076C2.51443 15.9627 2.56694 15.496 2.766 15.085C2.52721 14.8978 2.33415 14.6587 2.20143 14.3858C2.06872 14.1129 1.99984 13.8134 2 13.51V6C2 5.73478 2.10536 5.48043 2.29289 5.29289C2.48043 5.10536 2.73478 5 3 5H7.947L11.861 2.39ZM4.173 13.646L4.865 13.041C5.45638 12.5237 6.22711 12.259 7.01154 12.3039C7.79596 12.3488 8.53148 12.6996 9.06 13.281L11.762 16.253C12.1857 16.7191 12.452 17.3067 12.5231 17.9326C12.5941 18.5584 12.4664 19.1908 12.158 19.74L17.167 16.735C17.298 16.6562 17.3974 16.5342 17.4482 16.39C17.4989 16.2458 17.4978 16.0885 17.445 15.945L13.018 9.747C12.8968 9.57713 12.7254 9.44945 12.528 9.38185C12.3306 9.31424 12.1169 9.3101 11.917 9.37L9.431 10.115C8.91221 10.2706 8.36097 10.2829 7.83577 10.1505C7.31058 10.0181 6.83102 9.74595 6.448 9.363L6.155 9.071C5.88895 8.80549 5.70323 8.47028 5.6192 8.10392C5.53518 7.73756 5.55625 7.35492 5.68 7H4V13.51L4.173 13.646ZM14.063 4.044C13.8993 3.93971 13.7088 3.88532 13.5147 3.88745C13.3206 3.88958 13.1314 3.94815 12.97 4.056L7.57 7.656L7.862 7.949C7.98981 8.07665 8.14981 8.1673 8.325 8.21132C8.50019 8.25534 8.68403 8.25108 8.857 8.199L11.342 7.454C11.9416 7.27419 12.5825 7.28646 13.1748 7.4891C13.7671 7.69173 14.2812 8.07458 14.645 8.584L18.515 14H20V7H19.291C18.9105 6.99995 18.5379 6.89137 18.217 6.687L14.063 4.044ZM6.181 14.545L4.565 15.959L9.705 19.998L10.41 18.766C10.5148 18.5825 10.5587 18.3705 10.5355 18.1605C10.5123 17.9505 10.4232 17.7532 10.281 17.597L7.58 14.625C7.40384 14.4313 7.15873 14.3144 6.89734 14.2995C6.63595 14.2845 6.37811 14.3727 6.181 14.545Z" fill="var(--color-black)"/>
  </symbol>
  <symbol id="cart" viewBox="0 0 24 24" fill="none">
    <path d="M17 18C17.5304 18 18.0391 18.2107 18.4142 18.5858C18.7893 18.9609 19 19.4696 19 20C19 20.5304 18.7893 21.0391 18.4142 21.4142C18.0391 21.7893 17.5304 22 17 22C16.4696 22 15.9609 21.7893 15.5858 21.4142C15.2107 21.0391 15 20.5304 15 20C15 18.89 15.89 18 17 18ZM1 2H4.27L5.21 4H20C20.2652 4 20.5196 4.10536 20.7071 4.29289C20.8946 4.48043 21 4.73478 21 5C21 5.17 20.95 5.34 20.88 5.5L17.3 11.97C16.96 12.58 16.3 13 15.55 13H8.1L7.2 14.63L7.17 14.75C7.17 14.8163 7.19634 14.8799 7.24322 14.9268C7.29011 14.9737 7.3537 15 7.42 15H19V17H7C6.46957 17 5.96086 16.7893 5.58579 16.4142C5.21071 16.0391 5 15.5304 5 15C5 14.65 5.09 14.32 5.24 14.04L6.6 11.59L3 4H1V2ZM7 18C7.53043 18 8.03914 18.2107 8.41421 18.5858C8.78929 18.9609 9 19.4696 9 20C9 20.5304 8.78929 21.0391 8.41421 21.4142C8.03914 21.7893 7.53043 22 7 22C6.46957 22 5.96086 21.7893 5.58579 21.4142C5.21071 21.0391 5 20.5304 5 20C5 18.89 5.89 18 7 18ZM16 11L18.78 6H6.14L8.5 11H16Z" fill="var(--color-black)"/>
  </symbol>
  <symbol id="add-to-cart" viewBox="0 0 24 24" fill="none">
    <path d="M11 9H13V6H16V4H13V1H11V4H8V6H11M7 18C5.9 18 5 18.9 5 20C5 21.1 5.9 22 7 22C8.1 22 9 21.1 9 20C9 18.9 8.1 18 7 18ZM17 18C15.9 18 15 18.9 15 20C15 21.1 15.9 22 17 22C18.1 22 19 21.1 19 20C19 18.9 18.1 18 17 18ZM7.2 14.8V14.7L8.1 13H15.5C16.2 13 16.9 12.6 17.2 12L21.1 5L19.4 4L15.5 11H8.5L4.3 2H1V4H3L6.6 11.6L5.2 14C5.1 14.3 5 14.6 5 15C5 16.1 5.9 17 7 17H19V15H7.4C7.3 15 7.2 14.9 7.2 14.8Z" fill="var(--color-black)"/>
  </symbol>

</svg>  