<svg width="24" height="24" viewBox="0 0 24 24" fill="none" xmlns="http://www.w3.org/2000/svg">
<path d="M11.861 2.39C12.3449 2.06756 12.912 1.89269 13.4935 1.88665C14.0749 1.88062 14.6455 2.04368 15.136 2.356L19.29 5H21C21.2652 5 21.5196 5.10536 21.7071 5.29289C21.8946 5.48043 22 5.73478 22 6V15C22 15.2652 21.8946 15.5196 21.7071 15.7071C21.5196 15.8946 21.2652 16 21 16H19.48C19.5121 16.487 19.4091 16.9733 19.1823 17.4054C18.9556 17.8376 18.6139 18.1987 18.195 18.449L13.102 21.505C12.7891 21.6926 12.4308 21.791 12.0659 21.7896C11.701 21.7882 11.3435 21.687 11.032 21.497C10.6812 21.807 10.2327 21.9841 9.76472 21.9974C9.29675 22.0108 8.83892 21.8595 8.471 21.57L3.331 17.531C2.97186 17.249 2.71999 16.8526 2.61721 16.4076C2.51443 15.9627 2.56694 15.496 2.766 15.085C2.52721 14.8978 2.33415 14.6587 2.20143 14.3858C2.06872 14.1129 1.99984 13.8134 2 13.51V6C2 5.73478 2.10536 5.48043 2.29289 5.29289C2.48043 5.10536 2.73478 5 3 5H7.947L11.861 2.39ZM4.173 13.646L4.865 13.041C5.45638 12.5237 6.22711 12.259 7.01154 12.3039C7.79596 12.3488 8.53148 12.6996 9.06 13.281L11.762 16.253C12.1857 16.7191 12.452 17.3067 12.5231 17.9326C12.5941 18.5584 12.4664 19.1908 12.158 19.74L17.167 16.735C17.298 16.6562 17.3974 16.5342 17.4482 16.39C17.4989 16.2458 17.4978 16.0885 17.445 15.945L13.018 9.747C12.8968 9.57713 12.7254 9.44945 12.528 9.38185C12.3306 9.31424 12.1169 9.3101 11.917 9.37L9.431 10.115C8.91221 10.2706 8.36097 10.2829 7.83577 10.1505C7.31058 10.0181 6.83102 9.74595 6.448 9.363L6.155 9.071C5.88895 8.80549 5.70323 8.47028 5.6192 8.10392C5.53518 7.73756 5.55625 7.35492 5.68 7H4V13.51L4.173 13.646ZM14.063 4.044C13.8993 3.93971 13.7088 3.88532 13.5147 3.88745C13.3206 3.88958 13.1314 3.94815 12.97 4.056L7.57 7.656L7.862 7.949C7.98981 8.07665 8.14981 8.1673 8.325 8.21132C8.50019 8.25534 8.68403 8.25108 8.857 8.199L11.342 7.454C11.9416 7.27419 12.5825 7.28646 13.1748 7.4891C13.7671 7.69173 14.2812 8.07458 14.645 8.584L18.515 14H20V7H19.291C18.9105 6.99995 18.5379 6.89137 18.217 6.687L14.063 4.044ZM6.181 14.545L4.565 15.959L9.705 19.998L10.41 18.766C10.5148 18.5825 10.5587 18.3705 10.5355 18.1605C10.5123 17.9505 10.4232 17.7532 10.281 17.597L7.58 14.625C7.40384 14.4313 7.15873 14.3144 6.89734 14.2995C6.63595 14.2845 6.37811 14.3727 6.181 14.545Z" fill="#222222"/>
</svg>
