<svg width="80" height="80" viewBox="0 0 80 80" fill="none" xmlns="http://www.w3.org/2000/svg">
<path d="M70 15H10C8.67392 15 7.40215 15.5268 6.46447 16.4645C5.52678 17.4021 5 18.6739 5 20V27.5C5 28.8261 5.52678 30.0979 6.46447 31.0355C7.40215 31.9732 8.67392 32.5 10 32.5V60C10 61.3261 10.5268 62.5979 11.4645 63.5355C12.4021 64.4732 13.6739 65 15 65H65C66.3261 65 67.5979 64.4732 68.5355 63.5355C69.4732 62.5979 70 61.3261 70 60V32.5C71.3261 32.5 72.5979 31.9732 73.5355 31.0355C74.4732 30.0979 75 28.8261 75 27.5V20C75 18.6739 74.4732 17.4021 73.5355 16.4645C72.5979 15.5268 71.3261 15 70 15ZM65 60H15V32.5H65V60ZM70 27.5H10V20H70V27.5ZM30 42.5C30 41.837 30.2634 41.2011 30.7322 40.7322C31.2011 40.2634 31.837 40 32.5 40H47.5C48.163 40 48.7989 40.2634 49.2678 40.7322C49.7366 41.2011 50 41.837 50 42.5C50 43.163 49.7366 43.7989 49.2678 44.2678C48.7989 44.7366 48.163 45 47.5 45H32.5C31.837 45 31.2011 44.7366 30.7322 44.2678C30.2634 43.7989 30 43.163 30 42.5Z" fill="#1D8FBD"/>
</svg>
