<svg width="80" height="80" viewBox="0 0 80 80" fill="none" xmlns="http://www.w3.org/2000/svg">
<path d="M72.4688 25.0312C71.7604 24.2393 70.8938 23.6048 69.9248 23.1688C68.9559 22.7327 67.9063 22.5049 66.8438 22.5H50V17.5C49.9918 14.1873 48.6721 11.0127 46.3297 8.67028C43.9873 6.32786 40.8127 5.00825 37.5 5C37.0356 5.00377 36.5809 5.13369 36.1846 5.37588C35.7883 5.61807 35.4652 5.96342 35.25 6.375L23.4375 30H10C8.67392 30 7.40215 30.5268 6.46447 31.4645C5.52678 32.4021 5 33.6739 5 35V62.5C5 63.8261 5.52678 65.0979 6.46447 66.0355C7.40215 66.9732 8.67392 67.5 10 67.5H63.0938C64.918 67.4924 66.6775 66.823 68.0454 65.616C69.4133 64.4091 70.2966 62.7466 70.5313 60.9375L74.2813 30.9375C74.406 29.8811 74.3093 28.8103 73.9972 27.7934C73.6851 26.7765 73.1646 25.8358 72.4688 25.0312ZM10 35H22.5V62.5H10V35ZM69.3125 30.3125L65.5625 60.3125C65.4866 60.9147 65.1943 61.4687 64.7401 61.8712C64.2858 62.2737 63.7007 62.4972 63.0938 62.5H27.5V33.0938L38.9688 10.1562C40.6675 10.4955 42.1965 11.4123 43.2959 12.751C44.3953 14.0897 44.9975 15.7677 45 17.5V25C45 25.663 45.2634 26.2989 45.7322 26.7678C46.2011 27.2366 46.837 27.5 47.5 27.5H66.8438C67.1976 27.5036 67.5469 27.5804 67.8696 27.7256C68.1923 27.8708 68.4814 28.0813 68.7188 28.3438C68.95 28.6121 69.1223 28.926 69.2246 29.2651C69.3268 29.6042 69.3568 29.9611 69.3125 30.3125Z" fill="#1D8FBD"/>
</svg>
